<?xml version="1.0" encoding="utf-8" ?>
<svg baseProfile="full" height="200mm" version="1.1" viewBox="0,0,200,200" width="200mm" xmlns="http://www.w3.org/2000/svg" xmlns:ev="http://www.w3.org/2001/xml-events" xmlns:xlink="http://www.w3.org/1999/xlink"><defs /><rect fill="#1a1a1a" height="200" width="200" x="0" y="0" /><text alignment-baseline="middle" fill="#e1ed5e" style="dominant-baseline: central; font-size:9.0px; font-family:Arial;" text-anchor="middle" x="100.0" y="100.0">2014</text><line stroke="#e1ed5e" stroke-width="0.3" x1="100.0" x2="100.0" y1="15.0" y2="10.0" /><path d="M 100.0 14.0 a86.0,86.0 0 0,1 42.46469731375804,11.215312516191453" fill="none" id="id1" stroke="none" /><text fill="#e1ed5e" style="font-size:6.75px; font-family:Arial;" text-anchor="middle"><textPath startOffset="22.20632615414155" xlink:href="#id1">January</textPath></text><line stroke="#e1ed5e" stroke-width="0.3" x1="143.23703022742887" x2="145.7803849466894" y1="26.81831364943548" y2="22.513508569990506" /><path d="M 143.74570117128098 25.957352633546492 a86.0,86.0 0 0,1 28.547481713284135,27.462654790039103" fill="none" id="id2" stroke="none" /><text fill="#e1ed5e" style="font-size:6.75px; font-family:Arial;" text-anchor="middle"><textPath startOffset="19.985693538727396" xlink:href="#id2">February</textPath></text><line stroke="#e1ed5e" stroke-width="0.3" x1="172.23445277983987" x2="176.4835382374775" y1="55.19839476539836" y2="52.563006222186495" /><path d="M 173.08426987136738 54.67131705675599 a86.0,86.0 0 0,1 12.851231095245387,41.99856678651699" fill="none" id="id3" stroke="none" /><text fill="#e1ed5e" style="font-size:6.75px; font-family:Arial;" text-anchor="middle"><textPath startOffset="22.20632615414155" xlink:href="#id3">March</textPath></text><line stroke="#e1ed5e" stroke-width="0.3" x1="184.98032266829074" x2="189.97916517819016" y1="98.17113171792111" y2="98.06355123074" /><path d="M 185.9800911702706 98.14961562048488 a86.0,86.0 0 0,1 -9.607161424134198,41.387399972396054" fill="none" id="id4" stroke="none" /><text fill="#e1ed5e" style="font-size:6.75px; font-family:Arial;" text-anchor="middle"><textPath startOffset="21.466115282336823" xlink:href="#id4">April</textPath></text><path d="M 120.70491114924044 103.5080841355445 l 12.367360487216276 2.0954323740411183 a33.543621576519996,33.543621576519996 0 0,0 -0.10135533932657835,0.5684545691230528 l -12.32945870555051 -2.3080056938973894" fill="#ff0000" stroke="none" /><path d="M 120.64145759157962 103.86396538481128 l 17.489491895329145 3.273935039793751 a38.79328461531409,38.79328461531409 0 0,0 -0.12851673384673998,0.6553040571061406 l -17.43054522850674 -3.5745028239678365" fill="#ff5c08" stroke="none" /><path d="M 120.49622156327973 104.57218783832717 l 16.990385365275063 3.7901245893426965 a38.407993545015266,38.407993545015266 0 0,0 -0.1494975074339299,0.6440313493120905 l -16.92262729191058 -4.082024596003351" fill="#ff5507" stroke="none" /><line stroke="#e1ed5e" stroke-width="0.3" x1="174.80103733775053" x2="179.2010983576182" y1="140.37084112569926" y2="142.7455964860345" /><path d="M 175.68104954172406 140.8457921977663 a86.0,86.0 0 0,1 -30.038265399797805,32.042727171017184" fill="none" id="id5" stroke="none" /><text fill="#e1ed5e" style="font-size:6.75px; font-family:Arial;" text-anchor="middle"><textPath startOffset="22.206326154141568" xlink:href="#id5">May</textPath></text><path d="M 118.12598468904814 110.60418214915192 l 13.337339622934575 7.802697683627282 a36.45207815666175,36.45207815666175 0 0,0 -0.3215058092931707,0.5388622293549598 l -13.201052937943174 -8.031122006868346" fill="#ff3304" stroke="none" /><path d="M 115.80600337817218 113.82643327865902 l 14.275445795152491 12.487565267913693 a39.966487259657264,39.966487259657264 0 0,0 -0.4574091201667215,0.5139039954681013 l -14.058377825337434 -12.731443433122658" fill="#ff6f0a" stroke="none" /><path d="M 114.29624159901734 115.38237550388516 l 14.009040024299546 15.073354252599092 a41.57812457020255,41.57812457020255 0 0,0 -0.5284390561957102,0.4827165486656906 l -13.747501418636972 -15.312263567851366" fill="#ff8a0c" stroke="none" /><path d="M 113.20401910651253 116.32954008644616 l 13.151596742620834 16.26470883425769 a41.91662617019521,41.91662617019521 0 0,0 -0.5649612841924547,0.4488394126191477 l -12.869677965711029 -16.488682160881964" fill="#ff900d" stroke="none" /><path d="M 111.1453310114006 117.79835938074945 l 10.414047361422305 16.63054756804814 a40.622117491724964,40.622117491724964 0 0,0 -0.5958312919164228,0.36600824434700185 l -10.126236869573574 -16.80734427922352" fill="#ff7a0b" stroke="none" /><line stroke="#e1ed5e" stroke-width="0.3" x1="143.8653032363475" x2="146.44561519142675" y1="172.8068346515853" y2="177.08958963109032" /><path d="M 144.38136562736335 173.6633856474863 a86.0,86.0 0 0,1 -40.68145358897372,12.25698825130547" fill="none" id="id6" stroke="none" /><text fill="#e1ed5e" style="font-size:6.75px; font-family:Arial;" text-anchor="middle"><textPath startOffset="21.466115282336833" xlink:href="#id6">June</textPath></text><path d="M 109.89434966115114 118.52300852407294 l 9.233716318656409 17.28625042946431 a40.59785628489955,40.59785628489955 0 0,0 -0.6192315574273911,0.3239526841552142 l -8.934793858702522 -17.442632532564243" fill="#ff7a0b" stroke="none" /><path d="M 107.59598834532513 119.57807347666477 l 7.260564967359313 18.713545617871077 a41.07268276133978,41.07268276133978 0 0,0 -0.6613284359464326,0.25005782685011935 l -6.937366310652606 -18.835751694827827" fill="#ff820b" stroke="none" /><path d="M 101.98527174616119 120.90594882070398 l 1.7297382951043636 18.215048061096763 a39.296993480832185,39.296993480832185 0 0,0 -0.6739540713235854,0.05815159312463569 l -1.4159399060392364 -18.242123906500062" fill="#ff6409" stroke="none" /><line stroke="#e1ed5e" stroke-width="0.3" x1="102.19456741930631" x2="102.32365962044197" y1="184.97166512339345" y2="189.96999836594603" /><path d="M 102.22038585953345 185.97133177190398 a86.0,86.0 0 0,1 -42.740103519485714,-10.115201625700543" fill="none" id="id7" stroke="none" /><text fill="#e1ed5e" style="font-size:6.75px; font-family:Arial;" text-anchor="middle"><textPath startOffset="22.20632615414155" xlink:href="#id7">July</textPath></text><path d="M 100.18074693466247 120.99922214144158 l 0.16611820454990794 19.299652774722297 a40.30036767739747,40.30036767739747 0 0,0 -0.6937302784247135,0.0 l 0.16611820454989462 -19.299652774722297" fill="#ff750a" stroke="none" /><path d="M 96.93821686468263 120.77559828337769 l -3.071103546464365 20.83884153388503 a42.06392635449236,42.06392635449236 0 0,0 -0.7154155204589131,-0.11173319103239383 l 3.429354930531795 -20.78289003550553" fill="#ff920d" stroke="none" /><path d="M 93.08242187328487 119.8279376855182 l -9.044678060308724 25.924869901040765 a48.4573320007702,48.4573320007702 0 0,0 -0.785194391615871,-0.28154277295510066 l 9.489592012554322 -25.765339587045705" fill="#fff617" stroke="none" /><path d="M 91.07499286063937 119.00905698771935 l -14.192384109911835 30.227856866033086 a54.393818251836095,54.393818251836095 0 0,0 -0.8441074432081239,-0.4052228690647527 l 14.710604221120201 -29.97907972046877" fill="#b2ff20" stroke="none" /><line stroke="#e1ed5e" stroke-width="0.3" x1="58.666819895761336" x2="56.23545636021788" y1="174.27360380694188" y2="178.64263932499728" /><path d="M 58.180547188652646 175.14741091055294 a86.0,86.0 0 0,1 -31.652253787137756,-30.449443065178592" fill="none" id="id8" stroke="none" /><text fill="#e1ed5e" style="font-size:6.75px; font-family:Arial;" text-anchor="middle"><textPath startOffset="22.20632615414155" xlink:href="#id8">August</textPath></text><path d="M 88.8546689885994 117.79835938074946 l -11.359524769135996 18.14041270095935 a42.40358325004814,42.40358325004814 0 0,0 -0.6152925464146634,-0.3927088146810944 l 11.670099117597584 -17.94218945745445" fill="#ff970e" stroke="none" /><path d="M 88.24862548938628 117.40417183066458 l -11.899636444785745 17.623752627442535 a42.26494778247435,42.26494778247435 0 0,0 -0.5994439866087156,-0.4123030400115627 l 12.20123731601735 -17.41630879806587" fill="#ff950d" stroke="none" /><path d="M 87.07902340077011 116.55440617244103 l -17.84730403336591 22.866036307889747 a50.00658335090728,50.00658335090728 0 0,0 -0.6739994634418672,-0.5354659367664151 l 18.23826098952513 -22.5554364571182" fill="#f1ff19" stroke="none" /><path d="M 84.9287848128048 114.62390073753433 l -12.638412647648586 12.26330390373834 a38.610170268560374,38.610170268560374 0 0,0 -0.45871354914994145,-0.4809593223711111 l 12.847632748177485 -12.04393746478473" fill="#ff5808" stroke="none" /><path d="M 84.19399662182784 113.82643327865904 l -17.896263014560102 15.654905328557712 a44.77713798446769,44.77713798446769 0 0,0 -0.5024794269534578,-0.584497093121277 l 18.163084951084336 -15.344531136274906" fill="#ffbd11" stroke="none" /><path d="M 82.05923443525364 110.91462005526583 l -15.569840007181567 9.472220535203604 a39.224787508137496,39.224787508137496 0 0,0 -0.3459609901514362,-0.5798505191327824 l 15.730581873031234 -9.202807922184709" fill="#ff6309" stroke="none" /><line stroke="#e1ed5e" stroke-width="0.3" x1="26.63291911575756" x2="22.317208475507996" y1="142.92168965132927" y2="145.44649492493687" /><path d="M 25.769776987707644 143.4266507060508 a86.0,86.0 0 0,1 -11.730757126820373,-40.83630448921669" fill="none" id="id9" stroke="none" /><text fill="#e1ed5e" style="font-size:6.75px; font-family:Arial;" text-anchor="middle"><textPath startOffset="21.46611528233685" xlink:href="#id9">September</textPath></text><path d="M 81.69416730710424 110.29060199501025 l -18.166688021445218 10.212381984063702 a41.84037666302963,41.84037666302963 0 0,0 -0.3475213679746001,-0.6308522272788079 l 18.339785798871333 -9.898159238387073" fill="#ff8e0d" stroke="none" /><path d="M 80.20201598880116 107.00284435728193 l -22.775042571697455 8.055874692587428 a45.157807872514056,45.157807872514056 0 0,0 -0.2529034409672245,-0.7350557809273525 l 22.910336843607908 -7.66264620857078" fill="#ffc312" stroke="none" /><path d="M 79.97269907076064 106.31721596034903 l -20.888161044551367 6.588757256866786 a42.90267093331377,42.90267093331377 0 0,0 -0.21609304632019172,-0.706204578434373 l 20.99848086337769 -6.228225705880365" fill="#ffa00e" stroke="none" /><path d="M 79.86692584326677 105.97154293290107 l -21.485825937085327 6.372774025134914 a43.41100098108433,43.41100098108433 0 0,0 -0.20632083514556077,-0.7182298938924 l 21.59233940911699 -6.001986655737919" fill="#ffa80f" stroke="none" /><path d="M 79.67330655649465 105.27499134158121 l -22.70391555248741 5.891905552283909 a44.45596581792175,44.45596581792175 0 0,0 -0.1858443243285262,-0.7423556945260149 l 22.801971191110997 -5.5002220183605015" fill="#ffb811" stroke="none" /><path d="M 79.35854240842038 103.8639653848113 l -32.63459811277579 6.109014196092135 a54.20146154057746,54.20146154057746 0 0,0 -0.16377502691263227,-0.9185373259593514 l 32.73491958202761 -5.54635811939957" fill="#b5ff20" stroke="none" /><path d="M 79.29508885075956 103.50808413554451 l -19.815114256100784 3.3573236545078875 a41.09752161594675,41.09752161594675 0 0,0 -0.11217323043452374,-0.6985028129934996 l 19.869969240896598 -3.0157416118211735" fill="#ff820c" stroke="none" /><path d="M 79.1416061653843 102.43462659150553 l -23.423450527626766 2.7340242959999275 a44.582470682082835,44.582470682082835 0 0,0 -0.0824089954892993,-0.7630049496478304 l 23.467041824617116 -2.330423024467315" fill="#ffba11" stroke="none" /><line stroke="#e1ed5e" stroke-width="0.3" x1="15.007084014347285" x2="10.007500721073583" y1="101.09737516637583" y2="101.16192664675087" /><path d="M 14.007167355692545 101.11028546245083 a86.0,86.0 0 0,1 10.666146001902534,-42.60595125391555" fill="none" id="id10" stroke="none" /><text fill="#e1ed5e" style="font-size:6.75px; font-family:Arial;" text-anchor="middle"><textPath startOffset="22.20632615414155" xlink:href="#id10">October</textPath></text><path d="M 79.01574976396665 99.18683210126434 l -26.962268948461553 -1.044824158087742 a47.98250552432998,47.98250552432998 0 0,0 0.03908607321130936,-0.825045229582651 l 26.940289267016745 1.508780494293402" fill="#ffef16" stroke="none" /><path d="M 79.21141760316559 97.0276538004421 l -19.681896266835963 -2.814112499452154 a40.882058993425815,40.882058993425815 0 0,0 0.10560051259333919,-0.6957754367375841 l 19.630539860803324 3.15248704858183" fill="#ff7f0b" stroke="none" /><path d="M 79.3925641242962 95.95851677861259 l -19.19069001142327 -3.7636342607503215 a40.556265644627416,40.556265644627416 0 0,0 0.14024878886530284,-0.6839029028507823 l 19.123061926642976 4.093412819764506" fill="#ff790b" stroke="none" /><path d="M 79.71946130924805 94.55025226153421 l -15.370090736755758 -4.130221514818299 a36.91535167747082,36.91535167747082 0 0,0 0.17018544817021244,-0.6122476056941745 l 15.296718518019185 4.394180423931416" fill="#ff3b05" stroke="none" /><path d="M 80.02781315780177 93.51064311812611 l -17.837679173853672 -5.79581329866857 a39.755645819388796,39.755645819388796 0 0,0 0.21707094940485916,-0.6490145094085817 l 17.73527093067704 6.102000910999474" fill="#ff6c09" stroke="none" /><path d="M 80.95270993114464 91.15688171328213 l -20.34542515666517 -9.44580570798057 a43.43121865343883,43.43121865343883 0 0,0 0.32065021827061757,-0.6753711356788045 l 20.179816744552802 9.794619259299907" fill="#ffa80f" stroke="none" /><path d="M 81.6062741919709 89.86733742301443 l -19.89118958079797 -10.957579469250177 a43.709644884149526,43.709644884149526 0 0,0 0.36870617109754705,-0.655887137042388 l 19.69962576840799 11.29835011622735" fill="#ffac10" stroke="none" /><line stroke="#e1ed5e" stroke-width="0.3" x1="26.266209847984243" x2="21.928928074336255" y1="57.71137044288968" y2="55.22380399835378" /><path d="M 25.398753493254645 57.2138571539825 a86.0,86.0 0 0,1 29.58750427330803,-30.4925239686951" fill="none" id="id11" stroke="none" /><text fill="#e1ed5e" style="font-size:6.75px; font-family:Arial;" text-anchor="middle"><textPath startOffset="21.46611528233685" xlink:href="#id11">November</textPath></text><path d="M 82.54541684631803 88.32363383020207 l -17.335832516893763 -11.596927096069999 a41.857128448694795,41.857128448694795 0 0,0 0.40576606140548627,-0.5954116262103962 l 17.133641989819537 11.893616745550808" fill="#ff8f0d" stroke="none" /><path d="M 84.5562425177563 85.77008943001954 l -27.604284529020724 -25.43464572322411 a58.535552845603,58.535552845603 0 0,0 0.6891381661884853,-0.7351245469207836 l 27.16237904086178 25.90603968702295" fill="#7aff26" stroke="none" /><path d="M 85.31137513191541 84.99185889309783 l -36.301427337353495 -37.09107889634614 a72.89934258181052,72.89934258181052 0 0,0 0.9043571558190341,-0.8699908673766822 l 35.657586937922034 37.71045285048513" fill="#3cffa5" stroke="none" /><path d="M 85.57189188830299 84.74124197986013 l -14.387097745994383 -15.215386620249497 a41.94030972923906,41.94030972923906 0 0,0 0.5288315889287807,-0.49149132776068943 l 14.123058273270747 15.460782534084837" fill="#ff900d" stroke="none" /><path d="M 87.22198572758235 83.33499621200491 l -35.232184919870186 -45.949588303119796 a78.9022583277555,78.9022583277555 0 0,0 1.0849205032994529,-0.8171396303243035 l 34.43601826281234 46.549244522949955" fill="#45fff1" stroke="none" /><path d="M 87.80319425747018 82.90503203632743 l -16.91111165815974 -23.702510159546677 a50.11691407718475,50.11691407718475 0 0,0 0.7065741732578906,-0.4950003625478693 l 16.50060634531819 23.990095364858487" fill="#efff19" stroke="none" /><path d="M 88.70189139769569 82.29822771554957 l -31.539564736348414 -49.41589894078843 a79.62316275913922,79.62316275913922 0 0,0 1.1616672427118089,-0.7274359208145803 l 30.684278341264363 49.95147920292594" fill="#46fffa" stroke="none" /><line stroke="#e1ed5e" stroke-width="0.3" x1="56.76296977257108" x2="54.21961505331056" y1="26.818313649435495" y2="22.513508569990535" /><path d="M 56.25429882871898 25.957352633546506 a86.0,86.0 0 0,1 42.26535254187918,-11.944610805530505" fill="none" id="id12" stroke="none" /><text fill="#e1ed5e" style="font-size:6.75px; font-family:Arial;" text-anchor="middle"><textPath startOffset="22.20632615414155" xlink:href="#id12">December</textPath></text><path d="M 90.26544431104013 81.39251694778311 l -17.494138071394026 -33.43982900480878 a58.739462512492786,58.739462512492786 0 0,0 0.8999431441936881,-0.46098583243736685 l 16.915934439611576 33.73600736255865" fill="#78ff26" stroke="none" /><path d="M 90.91171255644093 81.06846463323043 l -11.808865535646358 -24.598688907881513 a48.2863482574292,48.2863482574292 0 0,0 0.7523973926955245,-0.3532606644181321 l 11.383689931651226 24.798314554939655" fill="#fff316" stroke="none" /><path d="M 93.25333710446033 80.11325718540243 l -20.239988686619004 -59.66022844379273 a84.0,84.0 0 0,0 1.3732687110303627,-0.45274510296306447 l 19.21003715334623 59.99978727101503" fill="#4dd2ff" stroke="none" /><path d="M 95.692805502759 79.44645832069477 l -4.769930694889821 -22.761676865907635 a44.256099685502875,44.256099685502875 0 0,0 0.746945157833958,-0.14983017176627886 l 4.377419127588726 22.840410993751124" fill="#ffb510" stroke="none" /></svg>