<?xml version="1.0" encoding="utf-8" ?>
<svg baseProfile="full" height="200mm" version="1.1" viewBox="0,0,200,200" width="200mm" xmlns="http://www.w3.org/2000/svg" xmlns:ev="http://www.w3.org/2001/xml-events" xmlns:xlink="http://www.w3.org/1999/xlink"><defs /><rect fill="#1a1a1a" height="200" width="200" x="0" y="0" /><text alignment-baseline="middle" fill="#e1ed5e" style="dominant-baseline: central; font-size:9.0px; font-family:Arial;" text-anchor="middle" x="100.0" y="100.0">2016</text><line stroke="#e1ed5e" stroke-width="0.3" x1="100.0" x2="100.0" y1="15.0" y2="10.0" /><path d="M 100.0 14.0 a86.0,86.0 0 0,1 42.35913384403234,11.155469271406648" fill="none" id="id25" stroke="none" /><text fill="#e1ed5e" style="font-size:6.75px; font-family:Arial;" text-anchor="middle"><textPath startOffset="22.145653131862478" xlink:href="#id25">January</textPath></text><path d="M 100.0 79.0 l 0.0 -12.955049132343717 a33.95504913234372,33.95504913234372 0 0,0 0.5828835702431027,0.0050033544155749085 l -0.22239064539424785 12.953140176122577" fill="#ff2904" stroke="none" /><path d="M 102.87502721639298 79.19773525538626 l 3.6398177164258745 -26.335907822890317 a47.586242943759146,47.586242943759146 0 0,0 0.8082294369758324,0.11878189432621356 l -4.091372259009389 26.26954485526522" fill="#fffe18" stroke="none" /><path d="M 105.69591212413111 79.78721728523813 l 17.08773637239333 -60.63834814428561 a84.0,84.0 0 0,0 1.3845599504735822,0.40302522278993624 l -18.126156335248517 60.33607922719316" fill="#4dd2ff" stroke="none" /><path d="M 108.73861861582097 80.90454125486305 l 6.785538268693091 -14.827625711778932 a37.30650219527493,37.30650219527493 0 0,0 0.5800473339397494,0.2714914405906703 l -7.039074316504346 14.708958039617729" fill="#ff6008" stroke="none" /><line stroke="#e1ed5e" stroke-width="0.3" x1="143.13028292997686" x2="145.6673583964461" y1="26.7553504044142" y2="22.446841604673864" /><path d="M 143.63769802327073 25.89364864446614 a86.0,86.0 0 0,1 29.32050498858742,28.57503671076992" fill="none" id="id26" stroke="none" /><text fill="#e1ed5e" style="font-size:6.75px; font-family:Arial;" text-anchor="middle"><textPath startOffset="20.669276256404974" xlink:href="#id26">February</textPath></text><path d="M 114.91283532996326 85.21462403516908 l 11.416441113149366 -11.318865279704136 a37.07643738239598,37.07643738239598 0 0,0 0.44423433389124706,0.45582356148123887 l -11.609062248191428 11.121219026155158" fill="#ff5c08" stroke="none" /><path d="M 115.8921839302757 86.27271002978787 l 11.326877486579534 -9.783886997376781 a35.967384486723816,35.967384486723816 0 0,0 0.39958982558012485,0.47071580977906147 l -11.493161875666772 9.588004405148165" fill="#ff4a06" stroke="none" /><path d="M 117.42321728460499 88.27688183743584 l 12.371224962190366 -8.323912264789794 a35.91089274513904,35.91089274513904 0 0,0 0.33974365547610413,0.514415196406944 l -12.512293056587195 8.110317190043792" fill="#ff4906" stroke="none" /><path d="M 117.62189284568427 88.57770195909679 l 15.101847956190635 -9.788835389852036 a38.99686389295421,38.99686389295421 0 0,0 0.35929539263617927,0.5648720346025538 l -15.267661040452705 9.528149680570808" fill="#ff7b0b" stroke="none" /><line stroke="#e1ed5e" stroke-width="0.3" x1="172.87174338648825" x2="177.1583165268699" y1="56.24261187166439" y2="53.66864786411523" /><path d="M 173.72905801456457 55.72781907015455 a86.0,86.0 0 0,1 12.242430191666344,42.057860355516425" fill="none" id="id27" stroke="none" /><text fill="#e1ed5e" style="font-size:6.75px; font-family:Arial;" text-anchor="middle"><textPath startOffset="22.145653131862474" xlink:href="#id27">March</textPath></text><path d="M 118.70294669586156 90.45014215332178 l 14.08306208586701 -7.1909118468338935 a36.812711687225594,36.812711687225594 0 0,0 0.28254647926944404,0.5652822289218424 l -14.204428478348191 6.9480977617483015" fill="#ff5808" stroke="none" /><path d="M 120.86939407059847 97.66154086499901 l 15.394977785022284 -1.7250393716625139 a36.49132343717332,36.49132343717332 0 0,0 0.06441171690446292,0.6231249314514876 l -15.422321894408414 1.4605099179280951" fill="#ff5307" stroke="none" /><path d="M 120.9064616781168 98.02013634271609 l 15.419116499210705 -1.4602063636702354 a36.48810370060631,36.48810370060631 0 0,0 0.053700719048328516,0.6240837557348569 l -15.441910840956776 1.1953015605597161" fill="#ff5307" stroke="none" /><line stroke="#e1ed5e" stroke-width="0.3" x1="184.99686870605535" x2="189.99668451229388" y1="99.2704041080226" y2="99.22748670261217" /><path d="M 185.99683186730306 99.26182062694052 a86.0,86.0 0 0,1 -10.086455211305974,41.156179273409016" fill="none" id="id28" stroke="none" /><text fill="#e1ed5e" style="font-size:6.75px; font-family:Arial;" text-anchor="middle"><textPath startOffset="21.40746469413373" xlink:href="#id28">April</textPath></text><path d="M 120.99922638620191 100.18025310272382 l 18.213671469239287 0.15634246395286394 a39.214342462889405,39.214342462889405 0 0,0 -0.011556220983087378,0.6730919370949286 l -18.208303816657534 -0.4689813170168635" fill="#ff7f0b" stroke="none" /><path d="M 119.4528033332814 107.91128576633889 l 11.372887808411567 4.6252544632947865 a33.277440936650635,33.277440936650635 0 0,0 -0.21974861989890526,0.5273166910812059 l -11.291813343976177 -4.81980366381727" fill="#ff1d03" stroke="none" /><line stroke="#e1ed5e" stroke-width="0.3" x1="174.33088141563837" x2="178.70328620479359" y1="141.23008692659167" y2="143.65538615756765" /><path d="M 175.20536237346943 141.71514677278685 a86.0,86.0 0 0,1 -30.301960400862466,31.63118572779886" fill="none" id="id29" stroke="none" /><text fill="#e1ed5e" style="font-size:6.75px; font-family:Arial;" text-anchor="middle"><textPath startOffset="22.145653131862474" xlink:href="#id29">May</textPath></text><path d="M 118.36410011445183 110.18625677009912 l 10.248777874174527 5.684824323294566 a32.71984110390968,32.71984110390968 0 0,0 -0.27666438485030265,0.48883945856114985 l -10.149680124302844 -5.859920551954837" fill="#ff1402" stroke="none" /><path d="M 118.18653347947321 110.5 l 10.411533759877392 6.011101818942085 a33.022203637884175,33.022203637884175 0 0,0 -0.2876490092770283,0.48849090383243904 l -10.3068110404706 -6.188943891068074" fill="#ff1902" stroke="none" /><path d="M 117.01052211995028 112.31430620078461 l 9.742077404510937 7.052512753279515 a33.02688689107255,33.02688689107255 0 0,0 -0.33639925740160403,0.45639020001331426 l -9.619576127525502 -7.218709262561709" fill="#ff1902" stroke="none" /><path d="M 115.6541949942343 113.99807769240083 l 9.80795482871038 8.770333686683529 a34.15730712941669,34.15730712941669 0 0,0 -0.3946019639355494,0.43373668245482844 l -9.655955163932951 -8.93740794469603" fill="#ff2c04" stroke="none" /><path d="M 115.41159269507618 114.26474011684316 l 8.854281682324135 8.195390938409059 a33.0649383232281,33.0649383232281 0 0,0 -0.38913364830743785,0.41324644949237 l -8.712292200280437 -8.346178847845923" fill="#ff1a02" stroke="none" /><line stroke="#e1ed5e" stroke-width="0.3" x1="143.1302829299769" x2="145.6673583964461" y1="173.24464959558577" y2="177.55315839532614" /><path d="M 143.63769802327073 174.10635135553383 a86.0,86.0 0 0,1 -40.685524379131806,11.842963189579606" fill="none" id="id30" stroke="none" /><text fill="#e1ed5e" style="font-size:6.75px; font-family:Arial;" text-anchor="middle"><textPath startOffset="21.407464694133747" xlink:href="#id30">June</textPath></text><path d="M 100.72087961077811 120.9876233191556 l 0.36281611074760345 10.562995197315352 a31.569224336190675,31.569224336190675 0 0,0 -0.5417680064703323,0.013954022063255078 l -0.18143479020652725 -10.567666936728653" fill="#ff0000" stroke="none" /><line stroke="#e1ed5e" stroke-width="0.3" x1="101.45913802915013" x2="101.54496967792366" y1="184.9874750549273" y2="189.98673829345242" /><path d="M 101.47630435890484 185.9873277026323 a86.0,86.0 0 0,1 -42.54439059252881,-10.42667462771756" fill="none" id="id31" stroke="none" /><text fill="#e1ed5e" style="font-size:6.75px; font-family:Arial;" text-anchor="middle"><textPath startOffset="22.145653131862474" xlink:href="#id31">July</textPath></text><line stroke="#e1ed5e" stroke-width="0.3" x1="58.13341422392154" x2="55.670673884152215" y1="173.97424548756322" y2="178.32567169271397" /><path d="M 57.64086615596767 174.84453072859336 a86.0,86.0 0 0,1 -31.369924170532244,-30.572349798747886" fill="none" id="id32" stroke="none" /><text fill="#e1ed5e" style="font-size:6.75px; font-family:Arial;" text-anchor="middle"><textPath startOffset="22.145653131862474" xlink:href="#id32">August</textPath></text><path d="M 85.60350026404147 115.28858382429668 l -9.665289605992252 10.264202621296231 a35.098641020280155,35.098641020280155 0 0,0 -0.4351019983959676,-0.4168178720579412 l 9.84006409025353 -10.096772618932707" fill="#ff3c05" stroke="none" /><path d="M 84.3458050057657 113.99807769240083 l -7.914701640823126 7.077375011696251 a31.617520384695798,31.617520384695798 0 0,0 -0.35831523983910785,-0.4076969679155505 l 8.035027944620825 -6.9404657659694005" fill="#ff0100" stroke="none" /><line stroke="#e1ed5e" stroke-width="0.3" x1="26.387840678322732" x2="22.057713659400548" y1="142.50000000000003" y2="145.00000000000006" /><path d="M 25.521815274538298 143.00000000000003 a86.0,86.0 0 0,1 -11.493303480769221,-40.785679425670985" fill="none" id="id33" stroke="none" /><text fill="#e1ed5e" style="font-size:6.75px; font-family:Arial;" text-anchor="middle"><textPath startOffset="21.40746469413373" xlink:href="#id33">September</textPath></text><path d="M 80.9802524753101 108.90220220490707 l -10.01157941696166 4.685924681417742 a32.05394104118754,32.05394104118754 0 0,0 -0.22898043422848716,-0.5003635731781926 l 10.090544316045202 -4.51337212602486" fill="#ff0801" stroke="none" /><path d="M 80.68587082218212 108.24405325689762 l -9.821414381410966 4.19217778202517 a31.678695379468955,31.678695379468955 0 0,0 -0.20919125371113312,-0.5019828555047601 l 9.891931479658584 -4.022962417079128" fill="#ff0200" stroke="none" /><path d="M 79.17382384314188 102.69636545807758 l -12.385399095193616 1.6035378772011462 a33.488772736776085,33.488772736776085 0 0,0 -0.0689197567337045,-0.57075445307464 l 12.411100938186982 -1.3906897472031068" fill="#ff2103" stroke="none" /><line stroke="#e1ed5e" stroke-width="0.3" x1="15.003131293944662" x2="10.003315487706104" y1="100.72959589197737" y2="100.7725132973878" /><path d="M 14.003168132696942 100.73817937305945 a86.0,86.0 0 0,1 10.791469493833604,-42.453326145846276" fill="none" id="id34" stroke="none" /><text fill="#e1ed5e" style="font-size:6.75px; font-family:Arial;" text-anchor="middle"><textPath startOffset="22.145653131862435" xlink:href="#id34">October</textPath></text><path d="M 79.0935383218832 98.0201363427161 l -12.10298946740404 -1.1461656859938627 a33.15713987037424,33.15713987037424 0 0,0 0.05852646891169577,-0.5661904957880538 l 12.08153060601068 1.3537607040648294" fill="#ff1b02" stroke="none" /><path d="M 79.2786578344484 96.59031103205396 l -12.16766916290367 -2.0021853304146444 a33.331298348316956,33.331298348316956 0 0,0 0.09774829009532802,-0.5637861616725964 l 12.131506055316107 2.2107645250078334" fill="#ff1e03" stroke="none" /><path d="M 79.56144815229197 95.17655741523228 l -12.830322644324687 -3.0279212089033156 a34.18277231862848,34.18277231862848 0 0,0 0.13968134491389153,-0.5699475536245072 l 12.776453772894497 3.2477245871359397" fill="#ff2d04" stroke="none" /><path d="M 80.05021161711548 93.44210830539832 l -12.025486071428068 -3.953016128182298 a33.65854066485469,33.65854066485469 0 0,0 0.1851453397804772,-0.5473492988900579 l 11.955855310075224 4.158867101546518" fill="#ff2403" stroke="none" /><path d="M 80.28708602549916 92.7611449362534 l -13.722243357927665 -5.038997833906651 a35.61818942086556,35.61818942086556 0 0,0 0.2156924186866364,-0.5721497663672045 l 13.633720255426592 5.273815880468" fill="#ff4506" stroke="none" /><path d="M 80.68587082218212 91.75594674310238 l -10.895812451641245 -4.650774430548108 a32.84687434664437,32.84687434664437 0 0,0 0.22580836844291344,-0.516693737428699 l 10.814370201181355 4.837130237752673" fill="#ff1602" stroke="none" /><path d="M 80.9802524753101 91.09779779509293 l -10.952161537215328 -5.12616460647189 a33.0924524357098,33.0924524357098 0 0,0 0.245232000189129,-0.5124405622904087 l 10.862550279066294 5.313417670827386" fill="#ff1a02" stroke="none" /><line stroke="#e1ed5e" stroke-width="0.3" x1="26.387840678322718" x2="22.05771365940052" y1="57.5" y2="55.0" /><path d="M 25.521815274538284 57.0 a86.0,86.0 0 0,1 29.574782752854787,-30.346332500585742" fill="none" id="id35" stroke="none" /><text fill="#e1ed5e" style="font-size:6.75px; font-family:Arial;" text-anchor="middle"><textPath startOffset="21.40746469413373" xlink:href="#id35">November</textPath></text><path d="M 82.576782715395 88.27688183743585 l -10.355333587467308 -6.967530581502519 a33.481162450344975,33.481162450344975 0 0,0 0.32494307289209795,-0.47410165439095053 l 10.234200777759897 7.144266970963506" fill="#ff2103" stroke="none" /><line stroke="#e1ed5e" stroke-width="0.3" x1="56.869717070023135" x2="54.33264160355391" y1="26.7553504044142" y2="22.446841604673864" /><path d="M 56.362301976729285 25.89364864446614 a86.0,86.0 0 0,1 42.16139366436587,-11.88097634709845" fill="none" id="id36" stroke="none" /><text fill="#e1ed5e" style="font-size:6.75px; font-family:Arial;" text-anchor="middle"><textPath startOffset="22.145653131862474" xlink:href="#id36">December</textPath></text><path d="M 90.28995756902619 81.37971332152246 l -5.942960111317744 -11.396409622114815 a33.85289567217228,33.85289567217228 0 0,0 0.5175830126906971,-0.26428157420484666 l 5.7464498769134655 11.496749147992494" fill="#ff2703" stroke="none" /></svg>