<?xml version="1.0" encoding="utf-8" ?>
<svg baseProfile="full" height="200mm" version="1.1" viewBox="0,0,200,200" width="200mm" xmlns="http://www.w3.org/2000/svg" xmlns:ev="http://www.w3.org/2001/xml-events" xmlns:xlink="http://www.w3.org/1999/xlink"><defs /><rect fill="#1a1a1a" height="200" width="200" x="0" y="0" /><text alignment-baseline="middle" fill="#e1ed5e" style="dominant-baseline: central; font-size:9.0px; font-family:Arial;" text-anchor="middle" x="100.0" y="100.0">2019</text><line stroke="#e1ed5e" stroke-width="0.3" x1="100.0" x2="100.0" y1="15.0" y2="10.0" /><path d="M 100.0 14.0 a86.0,86.0 0 0,1 42.46469731375804,11.215312516191453" fill="none" id="id61" stroke="none" /><text fill="#e1ed5e" style="font-size:6.75px; font-family:Arial;" text-anchor="middle"><textPath startOffset="22.20632615414155" xlink:href="#id61">January</textPath></text><line stroke="#e1ed5e" stroke-width="0.3" x1="143.23703022742887" x2="145.7803849466894" y1="26.81831364943548" y2="22.513508569990506" /><path d="M 143.74570117128098 25.957352633546492 a86.0,86.0 0 0,1 28.547481713284135,27.462654790039103" fill="none" id="id62" stroke="none" /><text fill="#e1ed5e" style="font-size:6.75px; font-family:Arial;" text-anchor="middle"><textPath startOffset="19.985693538727396" xlink:href="#id62">February</textPath></text><line stroke="#e1ed5e" stroke-width="0.3" x1="172.23445277983987" x2="176.4835382374775" y1="55.19839476539836" y2="52.563006222186495" /><path d="M 173.08426987136738 54.67131705675599 a86.0,86.0 0 0,1 12.851231095245387,41.99856678651699" fill="none" id="id63" stroke="none" /><text fill="#e1ed5e" style="font-size:6.75px; font-family:Arial;" text-anchor="middle"><textPath startOffset="22.20632615414155" xlink:href="#id63">March</textPath></text><path d="M 120.96714384426684 98.82574320788733 l 34.178254485237844 -1.9141399405632382 a55.23181285543814,55.23181285543814 0 0,0 0.04499128707996813,0.9496949611036064 l -34.206139380551306 1.325533872836632" fill="#80ff25" stroke="none" /><line stroke="#e1ed5e" stroke-width="0.3" x1="184.98032266829074" x2="189.97916517819016" y1="98.17113171792111" y2="98.06355123074" /><path d="M 185.9800911702706 98.14961562048488 a86.0,86.0 0 0,1 -9.607161424134198,41.387399972396054" fill="none" id="id64" stroke="none" /><text fill="#e1ed5e" style="font-size:6.75px; font-family:Arial;" text-anchor="middle"><textPath startOffset="21.466115282336823" xlink:href="#id64">April</textPath></text><path d="M 120.95626037817324 101.35467743843564 l 33.99222178672673 2.197362272933985 a55.063169890022465,55.063169890022465 0 0,0 -0.06928373520688651,0.9453215207140616 l -33.94936149285551 -2.782156930144817" fill="#82ff25" stroke="none" /><path d="M 120.5718875245553 104.21870165774334 l 33.63148320084201 6.896848612574089 a55.33137316032209,55.33137316032209 0 0,0 -0.19936673994630097,0.9313750364238548 l -33.50778242217127 -7.474737468414113" fill="#7fff26" stroke="none" /><line stroke="#e1ed5e" stroke-width="0.3" x1="174.80103733775053" x2="179.2010983576182" y1="140.37084112569926" y2="142.7455964860345" /><path d="M 175.68104954172406 140.8457921977663 a86.0,86.0 0 0,1 -30.038265399797805,32.042727171017184" fill="none" id="id65" stroke="none" /><text fill="#e1ed5e" style="font-size:6.75px; font-family:Arial;" text-anchor="middle"><textPath startOffset="22.206326154141568" xlink:href="#id65">May</textPath></text><path d="M 118.48025628344425 109.97397251340804 l 30.205471189391556 16.302184059396673 a55.32392306948042,55.32392306948042 0 0,0 -0.45951415738129703,0.8341516705566303 l -29.92038062255875 -16.81970624835111" fill="#7fff26" stroke="none" /><path d="M 117.94076556474637 110.91462005526583 l 29.38386451180452 17.876255934805716 a55.39436029198336,55.39436029198336 0 0,0 -0.5025992570759936,0.8103500334938684 l -29.071800615060567 -18.379402299664857" fill="#7fff26" stroke="none" /><path d="M 116.27256486870786 113.27417163493432 l 26.816957384875156 21.875647626889368 a55.60770380244897,55.60770380244897 0 0,0 -0.6114305354628802,0.7365074681144329 l -26.436430849518732 -22.33401635211757" fill="#7cff26" stroke="none" /><path d="M 114.55890576462653 115.13401014063108 l 24.10650153052364 25.058754037992227 a55.771605800965396,55.771605800965396 0 0,0 -0.6975810620188271,0.6596064349533355 l -23.671584634114005 -25.469995109691485" fill="#7aff26" stroke="none" /><path d="M 112.63410532772338 116.77436683061366 l 20.550268270946813 27.28469721460678 a55.157989228007175,55.157989228007175 0 0,0 -0.7633209843404675,0.5646866157876442 l -20.07756231618778 -27.634393779134193" fill="#81ff25" stroke="none" /><line stroke="#e1ed5e" stroke-width="0.3" x1="143.8653032363475" x2="146.44561519142675" y1="172.8068346515853" y2="177.08958963109032" /><path d="M 144.38136562736335 173.6633856474863 a86.0,86.0 0 0,1 -40.68145358897372,12.25698825130547" fill="none" id="id66" stroke="none" /><text fill="#e1ed5e" style="font-size:6.75px; font-family:Arial;" text-anchor="middle"><textPath startOffset="21.466115282336833" xlink:href="#id66">June</textPath></text><path d="M 109.57404056367764 118.69057910512821 l 4.013173820599607 7.8345754081215055 a29.802620969909377,29.802620969909377 0 0,0 -0.4586000241541921,0.22995157249124407 l -3.877719888762654 -7.902494821522052" fill="#ff1d02" stroke="none" /><path d="M 109.2508944713604 118.85261126421891 l 8.64871463687403 17.625415087041716 a40.63302121072039,40.63302121072039 0 0,0 -0.6305612796881724,0.3027077333961845 l -8.344040689185626 -17.77167709693746" fill="#ffc011" stroke="none" /><path d="M 108.92500713936063 119.00905698771935 l 18.762002075403903 39.96052452240515 a65.14585192272547,65.14585192272547 0 0,0 -1.0191665380767576,0.46784937066899784 l -18.071367541559724 -40.27756096340822" fill="#33ff53" stroke="none" /><path d="M 108.59647513512805 119.15986991738528 l 3.3849331295147773 7.544357125577254 a29.268923553252563,29.268923553252563 0 0,0 -0.4614445458811749,0.20228372830912872 l -3.2545679089758495 -7.60150540718084" fill="#ff1402" stroke="none" /><path d="M 106.57524785965236 119.94407469862006 l 2.9684361110981783 9.003875260902083 a30.48057923650007,30.48057923650007 0 0,0 -0.4997053723995836,0.1599898800667932 l -2.813009393607654 -9.053637987628584" fill="#ff2803" stroke="none" /><path d="M 106.2309692047433 120.05430185196036 l 3.0822930475178016 9.92032429305952 a31.38813575721089,31.38813575721089 0 0,0 -0.5173437757732215,0.15587143580476737 l -2.911074297304334 -9.971911097970015" fill="#ff3605" stroke="none" /><path d="M 105.88484417918355 120.15858648285463 l 2.2722246373273896 7.783525861578893 a29.108407959664156,29.108407959664156 0 0,0 -0.4821860892982381,0.13627060526234477 l -2.137907379924547 -7.821485260179757" fill="#ff1202" stroke="none" /><path d="M 105.53697534728816 120.25689768951611 l 5.255837788668498 19.228362360308267 a40.93373396832905,40.93373396832905 0 0,0 -0.6812729158734574,0.17993036907535742 l -4.924074429983542 -19.315984078687208" fill="#ffc412" stroke="none" /><path d="M 105.18746579009965 120.34920634021253 l 4.766307299395254 18.697100788859736 a40.295057998903445,40.295057998903445 0 0,0 -0.6735927500760416,0.1655527095385034 l -4.443761264576001 -18.77637475671227" fill="#ffbb11" stroke="none" /><path d="M 104.83641907484287 120.43548508189849 l 6.264223117181096 26.46843378951753 a48.19960438190047,48.19960438190047 0 0,0 -0.8090185405645429,0.1841299858942577 l -5.80768442722369 -26.57234050898947" fill="#d8ff1c" stroke="none" /><path d="M 104.13013068566511 120.58985236759428 l 6.677057188757181 33.286990710405334 a54.950063965426416,54.950063965426416 0 0,0 -0.929002489956324,0.1780455382446904 l -6.103087084229154 -33.39699344699849" fill="#84ff25" stroke="none" /><path d="M 102.70371172650421 120.8252237178851 l 2.7328942222675487 21.050000641016457 a42.22666336984917,42.22666336984917 0 0,0 -0.7216186428323647,0.0873779681156851 l -2.370148156383804 -21.093924137857492" fill="#ffd614" stroke="none" /><path d="M 102.34483914955558 120.86867818915974 l 1.9838580959898005 17.65600688900851 a38.767112095378366,38.767112095378366 0 0,0 -0.6637804682492731,0.0688035595686266 l -1.679645031134925 -17.687539817032892" fill="#ffa50f" stroke="none" /><path d="M 101.98527174616119 120.90594882070398 l 4.765727860230804 50.18560453098738 a71.41137832055816,71.41137832055816 0 0,0 -1.2247244609551182,0.10567437986298049 l -3.901159081534144 -50.26020316312903" fill="#3cffa2" stroke="none" /><path d="M 101.62511606390274 120.93702456842531 l 1.6645127110834235 21.44458743624586 a42.509089540846496,42.509089540846496 0 0,0 -0.7300171758958162,0.05034625857077713 l -1.2951327744086774 -21.470062039332923" fill="#ffda14" stroke="none" /><path d="M 101.26447882468166 120.96189622390904 l 1.3220076562757759 21.915580361768857 a42.95541771036025,42.95541771036025 0 0,0 -0.73844849141538,0.038169352146936064 l -0.9445710964469163 -21.935089520677998" fill="#ffe015" stroke="none" /><line stroke="#e1ed5e" stroke-width="0.3" x1="102.19456741930631" x2="102.32365962044197" y1="184.97166512339345" y2="189.96999836594603" /><path d="M 102.22038585953345 185.97133177190398 a86.0,86.0 0 0,1 -42.740103519485714,-10.115201625700543" fill="none" id="id67" stroke="none" /><text fill="#e1ed5e" style="font-size:6.75px; font-family:Arial;" text-anchor="middle"><textPath startOffset="22.20632615414155" xlink:href="#id67">July</textPath></text><path d="M 100.54218724476979 120.99299961872073 l 0.5063693944477058 19.60616485746724 a40.61270278115224,40.61270278115224 0 0,0 -0.6990032327388843,0.012033974562402641 l -0.1688064718161535 -19.6119763093088" fill="#ffbf11" stroke="none" /><path d="M 100.18074693466247 120.99922214144158 l 0.07125221027035168 8.27809884759588 a29.27840548705103,29.27840548705103 0 0,0 -0.5039982898656086,0.0 l 0.07125221027034598 -8.27809884759588" fill="#ff1402" stroke="none" /><path d="M 99.45781275523022 120.99299961872073 l -0.40008742817056436 15.491023272976397 a36.496188950644495,36.496188950644495 0 0,0 -0.6278728718716485,-0.02162521122820182 l 0.666680651716856 -15.481841263322103" fill="#ff840c" stroke="none" /><path d="M 98.01472825383883 120.90594882070398 l -1.1767695660896034 12.391998410294196 a33.44774723443598,33.44774723443598 0 0,0 -0.572700934403742,-0.05936279348378625 l 1.389903097098939 -12.369906248354647" fill="#ff5607" stroke="none" /><path d="M 97.65516085044442 120.86867818915974 l -1.0598776813668658 9.43273497310465 a30.492093013255356,30.492093013255356 0 0,0 -0.521084571248747,-0.06309608475945255 l 1.2220896756670017 -9.413093359619847" fill="#ff2803" stroke="none" /><path d="M 95.86986931433489 120.58985236759428 l -1.4885413865653523 7.420793608011245 a28.568615014136896,28.568615014136896 0 0,0 -0.48132475843515415,-0.1008662829630567 l 1.6160576064298937 -7.394071344321646" fill="#ff0901" stroke="none" /><path d="M 95.16358092515715 120.4354850818985 l -1.8474466782841807 7.806078929358708 a29.021715993506703,29.021715993506703 0 0,0 -0.4851418128874267,-0.11923605416606431 l 1.981541775914818 -7.773121616878613" fill="#ff1001" stroke="none" /><path d="M 94.81253420990036 120.34920634021253 l -2.2244663502670905 8.726057498988352 a30.005127984605295,30.005127984605295 0 0,0 -0.4993847140611431,-0.1318920418205837 l 2.374341507139722 -8.686474107864186" fill="#ff2003" stroke="none" /><path d="M 94.46302465271185 120.25689768951611 l -5.056904542658142 18.50056962894841 a40.17924295036498,40.17924295036498 0 0,0 -0.6655764910278259,-0.18809856462833763 l 5.374612201790583 -18.41078227098155" fill="#ffb911" stroke="none" /><path d="M 94.11515582081647 120.15858648285463 l -2.0721808044053103 7.098273918870561 a28.394553800836388,28.394553800836388 0 0,0 -0.46800312667010996,-0.14100550297751616 l 2.194058905515666 -7.061553046787319" fill="#ff0601" stroke="none" /><path d="M 93.76903079525671 120.05430185196036 l -7.960346342305054 25.62028203785852 a47.82845440178888,47.82845440178888 0 0,0 -0.7841102832298652,-0.2510473513035817 l 8.40017797062586 -25.47946183989523" fill="#dcff1b" stroke="none" /><path d="M 91.07499286063937 119.00905698771935 l -8.188892423300747 17.441232293734437 a40.26796675947925,40.26796675947925 0 0,0 -0.6248962024905539,-0.29998815207515733 l 8.487901293791541 -17.297689865159718" fill="#ffba11" stroke="none" /><path d="M 90.10565033884886 118.52300852407294 l -8.074373928211672 15.115869382103142 a38.13724077876563,38.13724077876563 0 0,0 -0.5763757257834862,-0.31428600156447906 l 8.333372465863802 -14.974642728778896" fill="#ff9c0e" stroke="none" /><line stroke="#e1ed5e" stroke-width="0.3" x1="58.666819895761336" x2="56.23545636021788" y1="174.27360380694188" y2="178.64263932499728" /><path d="M 58.180547188652646 175.14741091055294 a86.0,86.0 0 0,1 -31.652253787137756,-30.449443065178592" fill="none" id="id68" stroke="none" /><text fill="#e1ed5e" style="font-size:6.75px; font-family:Arial;" text-anchor="middle"><textPath startOffset="22.20632615414155" xlink:href="#id68">August</textPath></text><path d="M 89.7882731507175 118.34994917583269 l -4.767902351037832 8.567675879719088 a30.80499682860491,30.80499682860491 0 0,0 -0.46112327324096447,-0.2618378291243973 l 4.914674391200004 -8.484334884800058" fill="#ff2d04" stroke="none" /><path d="M 89.1626897886671 117.98757091392108 l -17.50462281912215 29.053855443866155 a54.919586321074185,54.919586321074185 0 0,0 -0.8055416627620907,-0.49482948233150853 l 18.002143681816552 -28.74823749470627" fill="#84ff25" stroke="none" /><path d="M 88.54995079064634 117.60387380957326 l -5.57872778913037 8.5770129212706 a31.231683849536118,31.231683849536118 0 0,0 -0.4481379307057019,-0.2970013842572736 l 5.725540418576034 -8.47971351592201" fill="#ff3304" stroke="none" /><path d="M 85.70375840098266 115.38237550388516 l -28.13847812720509 30.276253633701835 a62.33310398950752,62.33310398950752 0 0,0 -0.7796510832968777,-0.7372087626241834 l 28.655465044892782 -29.787410234331723" fill="#30ff2f" stroke="none" /><path d="M 85.44109423537348 115.13401014063109 l -12.496971917313713 12.990625997685303 a39.025833431879505,39.025833431879505 0 0,0 -0.4801107583666853,-0.4698894269815082 l 12.718732628056193 -12.773586467781225" fill="#ffa90f" stroke="none" /><path d="M 84.4343377721795 114.09645910891817 l -7.763168837259582 7.030423149904126 a31.473473161397138,31.473473161397138 0 0,0 -0.3602081307224958,-0.40469765340689606 l 7.883035817630414 -6.895751326756364" fill="#ff3705" stroke="none" /><path d="M 83.72743513129215 113.27417163493433 l -5.428678366847009 4.428386611071739 a28.005794515099065,28.005794515099065 0 0,0 -0.3015051665969612,-0.3761740538683882 l 5.504101445498829 -4.3342847236250925" fill="#ff0000" stroke="none" /><path d="M 82.85270091963577 112.12312394758628 l -7.679867844064698 5.429659174796462 a30.405401047097904,30.405401047097904 0 0,0 -0.29846389472477464,-0.42995950084018475 l 7.772192645951606 -5.296658411769265" fill="#ff2603" stroke="none" /><path d="M 82.44556493220864 111.52570212397912 l -8.256825412937228 5.421177601654871 a30.877465894064656,30.877465894064656 0 0,0 -0.2878884596809049,-0.4468092825889721 l 8.348918735995179 -5.278246719144451" fill="#ff2e04" stroke="none" /><line stroke="#e1ed5e" stroke-width="0.3" x1="26.63291911575756" x2="22.317208475507996" y1="142.92168965132927" y2="145.44649492493687" /><path d="M 25.769776987707644 143.4266507060508 a86.0,86.0 0 0,1 -11.730757126820373,-40.83630448921669" fill="none" id="id69" stroke="none" /><text fill="#e1ed5e" style="font-size:6.75px; font-family:Arial;" text-anchor="middle"><textPath startOffset="21.46611528233685" xlink:href="#id69">September</textPath></text><path d="M 81.69416730710424 110.29060199501025 l -7.461350269498164 4.194389146720762 a29.559477096077146,29.559477096077146 0 0,0 -0.24551762523016354,-0.4456858052077323 l 7.532444304179844 -4.065332823115209" fill="#ff1902" stroke="none" /><path d="M 81.35079622478065 109.6543875284942 l -8.147435932630582 4.217794218202164 a30.17444823100657,30.17444823100657 0 0,0 -0.23481659373221545,-0.4633154164896874 l 8.218831196149063 -4.076924590009792" fill="#ff2303" stroke="none" /><path d="M 81.18737489456691 109.33194174019688 l -32.247354144701504 15.996195558425397 a56.996807103925,56.996807103925 0 0,0 -0.4284171611768387,-0.882666244995844 l 32.51792456249306 -15.438740357464267" fill="#6cff28" stroke="none" /><path d="M 80.73074385275274 108.34839909993369 l -57.807768441741786 25.045197299801064 a84.0,84.0 0 0,0 -0.5633960752307643,-1.33170189733536 l 58.23031549816486 -24.046420876799544" fill="#4dd2ff" stroke="none" /><path d="M 80.32549172779594 107.34259656027581 l -17.86334265727718 6.666663102104452 a40.06681430675454,40.06681430675454 0 0,0 -0.23558473836633162,-0.6482280203650799 l 17.975451656648737 -6.358187284733255" fill="#ffb811" stroke="none" /><path d="M 80.20201598880116 107.00284435728193 l -8.985171771538827 3.1781902341136106 a30.53069802943485,30.53069802943485 0 0,0 -0.17098523933166881,-0.49696314191422286 l 9.038547841813724 -3.023054389110092" fill="#ff2803" stroke="none" /><path d="M 79.97269907076064 106.31721596034903 l -32.39238676833831 10.217537720621715 a54.96564142809534,54.96564142809534 0 0,0 -0.27685206167239973,-0.9047685560984904 l 32.56346560251684 -9.658442191971178" fill="#84ff25" stroke="none" /><path d="M 79.50377843672027 104.57218783832718 l -10.779471453113965 2.4046270250035358 a32.04442103226223,32.04442103226223 0 0,0 -0.11546056766308904,-0.5393933333197479 l 10.819266059501496 -2.218719872267623" fill="#ff4006" stroke="none" /><path d="M 79.35854240842038 103.8639653848113 l -51.72092120550654 9.681867102745436 a73.61931433363077,73.61931433363077 0 0,0 -0.22244797176278241,-1.247606359772226 l 51.87991561960851 -8.790141992239995" fill="#3fffbc" stroke="none" /><path d="M 79.18660465613746 102.79330883721812 l -34.16660068181531 4.58540598712839 a55.47292488631354,55.47292488631354 0 0,0 -0.1188665665498604,-0.9474834892604209 l 34.24046875761202 -3.9966047435805607" fill="#7eff26" stroke="none" /><path d="M 79.10278846688536 102.07522291339032 l -8.77436212869262 0.8713486634804235 a29.817521151592686,29.817521151592686 0 0,0 -0.046324222170836045,-0.5111839315200079 l 8.788060947140531 -0.7201833434118498" fill="#ff1d02" stroke="none" /><path d="M 79.0235259727143 100.99374915477108 l -20.672490034888657 0.9793480769199793 a41.69567507713478,41.69567507713478 0 0,0 -0.027792881924248947,-0.7172107875701191 l 20.686285049664104 -0.6233600423358633" fill="#ffcf13" stroke="none" /><path d="M 79.0095281055655 100.63252640178507 l -9.99280864018365 0.3011230678705264 a30.997344628516753,30.997344628516753 0 0,0 -0.011480733497705913,-0.5334645729623381 l 9.996511436366363 -0.12906867911805947" fill="#ff3004" stroke="none" /><line stroke="#e1ed5e" stroke-width="0.3" x1="15.007084014347285" x2="10.007500721073583" y1="101.09737516637583" y2="101.16192664675087" /><path d="M 14.007167355692545 101.11028546245083 a86.0,86.0 0 0,1 10.666146001902534,-42.60595125391555" fill="none" id="id70" stroke="none" /><text fill="#e1ed5e" style="font-size:6.75px; font-family:Arial;" text-anchor="middle"><textPath startOffset="22.20632615414155" xlink:href="#id70">October</textPath></text><path d="M 79.16333360222342 97.38593545837743 l -7.50168375272944 -0.9411239363398659 a28.560487642309635,28.560487642309635 0 0,0 0.06539535784293052,-0.48727137447278507 l 7.484372395828676 1.070113652877311" fill="#ff0901" stroke="none" /><path d="M 79.21141760316559 97.0276538004421 l -19.053202073336855 -2.724221964298793 a40.24697104892549,40.24697104892549 0 0,0 0.10396004696777299,-0.6849668179245603 l 19.003486132929783 3.051787894615445" fill="#ffba11" stroke="none" /><path d="M 80.02781315780177 93.51064311812611 l -32.44173309670004 -10.540958063048793 a55.11125684000043,55.11125684000043 0 0,0 0.30091456442444614,-0.899696246500395 l 32.25548123850382 11.09782741247151" fill="#82ff25" stroke="none" /><line stroke="#e1ed5e" stroke-width="0.3" x1="26.266209847984243" x2="21.928928074336255" y1="57.71137044288968" y2="55.22380399835378" /><path d="M 25.398753493254645 57.2138571539825 a86.0,86.0 0 0,1 29.58750427330803,-30.4925239686951" fill="none" id="id71" stroke="none" /><text fill="#e1ed5e" style="font-size:6.75px; font-family:Arial;" text-anchor="middle"><textPath startOffset="21.46611528233685" xlink:href="#id71">November</textPath></text><line stroke="#e1ed5e" stroke-width="0.3" x1="56.76296977257108" x2="54.21961505331056" y1="26.818313649435495" y2="22.513508569990535" /><path d="M 56.25429882871898 25.957352633546506 a86.0,86.0 0 0,1 42.26535254187918,-11.944610805530505" fill="none" id="id72" stroke="none" /><text fill="#e1ed5e" style="font-size:6.75px; font-family:Arial;" text-anchor="middle"><textPath startOffset="22.20632615414155" xlink:href="#id72">December</textPath></text><path d="M 93.59665428221793 80.00007090966166 l -10.331856381435605 -32.27006694741515 a54.88369042883711,54.88369042883711 0 0,0 0.9022215588405118,-0.2803246301212528 l 9.774849449884364 32.44313171241893" fill="#85ff25" stroke="none" /></svg>