<?xml version="1.0" encoding="utf-8" ?>
<svg baseProfile="full" height="200mm" version="1.1" viewBox="0,0,200,200" width="200mm" xmlns="http://www.w3.org/2000/svg" xmlns:ev="http://www.w3.org/2001/xml-events" xmlns:xlink="http://www.w3.org/1999/xlink"><defs /><rect fill="#1a1a1a" height="200" width="200" x="0" y="0" /><text alignment-baseline="middle" fill="#e1ed5e" style="dominant-baseline: central; font-size:9.0px; font-family:Arial;" text-anchor="middle" x="100.0" y="100.0">2022</text><line stroke="#e1ed5e" stroke-width="0.3" x1="100.0" x2="100.0" y1="15.0" y2="10.0" /><path d="M 100.0 14.0 a86.0,86.0 0 0,1 42.46469731375804,11.215312516191453" fill="none" id="id97" stroke="none" /><text fill="#e1ed5e" style="font-size:6.75px; font-family:Arial;" text-anchor="middle"><textPath startOffset="22.20632615414155" xlink:href="#id97">January</textPath></text><path d="M 100.0 79.0 l 0.0 -20.65951280645414 a41.65951280645414,41.65951280645414 0 0,0 0.7171000312160513,0.006172306365236193 l -0.35561955194352285 20.65645187669746" fill="#ffbf11" stroke="none" /><path d="M 102.88285421437855 79.19881850522331 l 2.839443176334049 -20.487949949200523 a41.68377457507637,41.68377457507637 0 0,0 0.7098767048031732,0.1046173733855851 l -3.1916888615658783 20.43603809165397" fill="#ffc011" stroke="none" /><path d="M 107.76421540070413 80.48803036053334 l 4.906075561316712 -12.329281512805471 a34.269542570690064,34.269542570690064 0 0,0 0.546217556201781,0.22281585588076785 l -5.11757698710688 12.243004770741125" fill="#ff5007" stroke="none" /><path d="M 109.73455568895987 81.39251694778311 l 9.65049249755172 -18.446797299377007 a41.81865355995927,41.81865355995927 0 0,0 0.6349564207194995,0.3391717300149627 l -9.966593964799532 18.277946842860292" fill="#ffc212" stroke="none" /><line stroke="#e1ed5e" stroke-width="0.3" x1="143.23703022742887" x2="145.7803849466894" y1="26.81831364943548" y2="22.513508569990506" /><path d="M 143.74570117128098 25.957352633546492 a86.0,86.0 0 0,1 28.547481713284135,27.462654790039103" fill="none" id="id98" stroke="none" /><text fill="#e1ed5e" style="font-size:6.75px; font-family:Arial;" text-anchor="middle"><textPath startOffset="19.985693538727396" xlink:href="#id98">February</textPath></text><path d="M 114.94478906791727 85.2469230424477 l 14.715062831951206 -14.526297655216622 a41.67719511239916,41.67719511239916 0 0,0 0.4996018761147137,0.5148836495809581 l -14.96292897176903 14.27084981008555" fill="#ffc011" stroke="none" /><path d="M 116.60985879189232 87.15038557335679 l 6.606474735272909 -5.110859407730418 a29.352627868724056,29.352627868724056 0 0,0 0.30572028250181676,0.4022920556436906 l -6.693470957998839 4.996382576205696" fill="#ff0000" stroke="none" /><path d="M 117.2510076193507 88.02491185347247 l 16.960833429152874 -11.773658665876885 a41.64676509751703,41.64676509751703 0 0,0 0.40372678370932724,0.5924192378249252 l -17.160984678530934 11.479961404781557" fill="#ffbf11" stroke="none" /><line stroke="#e1ed5e" stroke-width="0.3" x1="172.23445277983987" x2="176.4835382374775" y1="55.19839476539836" y2="52.563006222186495" /><path d="M 173.08426987136738 54.67131705675599 a86.0,86.0 0 0,1 12.851231095245387,41.99856678651699" fill="none" id="id99" stroke="none" /><text fill="#e1ed5e" style="font-size:6.75px; font-family:Arial;" text-anchor="middle"><textPath startOffset="22.20632615414155" xlink:href="#id99">March</textPath></text><path d="M 118.03404312379186 89.2402003453031 l 17.755064231573726 -10.593350180912717 a41.67513903031252,41.67513903031252 0 0,0 0.3622568307184579,0.619214350974818 l -17.934780736762512 10.286156417584001" fill="#ffc011" stroke="none" /><path d="M 118.73160827565052 90.50648371742162 l 18.386818744454636 -9.31877074122914 a41.61345656771364,41.61345656771364 0 0,0 0.3183231011429254,0.6417199475652126 l -18.54450185855097 9.000891205164978" fill="#ffbf11" stroke="none" /><path d="M 120.83666639777658 97.38593545837742 l 20.519636363487546 -2.574291530170381 a41.680484843737766,41.680484843737766 0 0,0 0.08318163840191964,0.7126494796571484 l -20.560908354893055 2.22069831218838" fill="#ffc011" stroke="none" /><line stroke="#e1ed5e" stroke-width="0.3" x1="184.98032266829074" x2="189.97916517819016" y1="98.17113171792111" y2="98.06355123074" /><path d="M 185.9800911702706 98.14961562048488 a86.0,86.0 0 0,1 -9.607161424134198,41.387399972396054" fill="none" id="id100" stroke="none" /><text fill="#e1ed5e" style="font-size:6.75px; font-family:Arial;" text-anchor="middle"><textPath startOffset="21.466115282336823" xlink:href="#id100">April</textPath></text><path d="M 120.95626037817324 101.35467743843564 l 20.585295010783305 1.3306970905789433 a41.628260358737364,41.628260358737364 0 0,0 -0.05237913788070353,0.7146717209634013 l -20.559339314238265 -1.6848419480391144" fill="#ffbf11" stroke="none" /><path d="M 120.64145759157962 103.86396538481128 l 20.39651509724859 3.8181135201759773 a41.75080285110049,41.75080285110049 0 0,0 -0.13831457869861402,0.7052630569200193 l -20.32777058557431 -4.168640304163942" fill="#ffc111" stroke="none" /><path d="M 120.32669344350535 105.2749913415812 l 19.97164898216739 5.18285355908159 a41.63319495574528,41.63319495574528 0 0,0 -0.1859852431826801,0.6921202780914623 l -19.879475662642935 -5.5258647703486" fill="#ffbf11" stroke="none" /><path d="M 119.12269723197855 108.67885076344098 l 18.801039894266673 8.532866334722494 a41.64676509751703,41.64676509751703 0 0,0 -0.3018902273500509,0.6502446922965824 l -18.65137505007679 -8.855231094297906" fill="#ffbf11" stroke="none" /><line stroke="#e1ed5e" stroke-width="0.3" x1="174.80103733775053" x2="179.2010983576182" y1="140.37084112569926" y2="142.7455964860345" /><path d="M 175.68104954172406 140.8457921977663 a86.0,86.0 0 0,1 -30.038265399797805,32.042727171017184" fill="none" id="id101" stroke="none" /><text fill="#e1ed5e" style="font-size:6.75px; font-family:Arial;" text-anchor="middle"><textPath startOffset="22.206326154141568" xlink:href="#id101">May</textPath></text><line stroke="#e1ed5e" stroke-width="0.3" x1="143.8653032363475" x2="146.44561519142675" y1="172.8068346515853" y2="177.08958963109032" /><path d="M 144.38136562736335 173.6633856474863 a86.0,86.0 0 0,1 -40.68145358897372,12.25698825130547" fill="none" id="id102" stroke="none" /><text fill="#e1ed5e" style="font-size:6.75px; font-family:Arial;" text-anchor="middle"><textPath startOffset="21.466115282336833" xlink:href="#id102">June</textPath></text><path d="M 107.59598834532513 119.57807347666477 l 6.2034598952402655 15.98893891317031 a38.150191900994756,38.150191900994756 0 0,0 -0.61427218883031,0.23226518063381035 l -5.927317485649681 -16.09335234391075" fill="#ff8b0c" stroke="none" /><path d="M 105.88484417918355 120.15858648285463 l 5.7737572012573946 19.77805704427329 a41.60358737369781,41.60358737369781 0 0,0 -0.6891710163022038,0.19476661315021837 l -5.432455016850587 -19.874512450762026" fill="#ffbf11" stroke="none" /><line stroke="#e1ed5e" stroke-width="0.3" x1="102.19456741930631" x2="102.32365962044197" y1="184.97166512339345" y2="189.96999836594603" /><path d="M 102.22038585953345 185.97133177190398 a86.0,86.0 0 0,1 -42.740103519485714,-10.115201625700543" fill="none" id="id103" stroke="none" /><text fill="#e1ed5e" style="font-size:6.75px; font-family:Arial;" text-anchor="middle"><textPath startOffset="22.20632615414155" xlink:href="#id103">July</textPath></text><path d="M 92.40401165467489 119.57807347666478 l -7.464202380063935 19.23840532634903 a41.63566225424924,41.63566225424924 0 0,0 -0.6659305445829456,-0.2649875069296969 l 7.794254000688739 -19.107070975013265" fill="#ffbf11" stroke="none" /><path d="M 91.40352486487194 119.15986991738527 l -8.439756282797743 18.81057409822091 a41.61715751546957,41.61715751546957 0 0,0 -0.6510746747152486,-0.29887644996553625 l 8.762298953280412 -18.662510577921303" fill="#ffbf11" stroke="none" /><line stroke="#e1ed5e" stroke-width="0.3" x1="58.666819895761336" x2="56.23545636021788" y1="174.27360380694188" y2="178.64263932499728" /><path d="M 58.180547188652646 175.14741091055294 a86.0,86.0 0 0,1 -31.652253787137756,-30.449443065178592" fill="none" id="id104" stroke="none" /><text fill="#e1ed5e" style="font-size:6.75px; font-family:Arial;" text-anchor="middle"><textPath startOffset="22.20632615414155" xlink:href="#id104">August</textPath></text><path d="M 87.95078237400918 117.19931262002967 l -10.738781448839706 15.328767811311012 a39.71610401817185,39.71610401817185 0 0,0 -0.5565411455647138,-0.3970773302765301 l 11.001049922253308 -15.141646219190266" fill="#ffa30f" stroke="none" /><path d="M 86.24171649860922 115.8653595955263 l -13.499918304440953 15.567425863010635 a41.605643455784445,41.605643455784445 0 0,0 -0.5370251343301123,-0.47386224220461215 l 13.765885791677652 -15.332740479033735" fill="#ffbf11" stroke="none" /><path d="M 84.19399662182784 113.82643327865904 l -15.503922636864576 13.562185630817506 a41.5986527766899,41.5986527766899 0 0,0 -0.4668111485043475,-0.5430068271485046 l 15.735076294939702 -13.293301704507474" fill="#ffbf11" stroke="none" /><path d="M 83.06392112726016 112.41649034213515 l -11.303542576534518 8.28706150272841 a35.015900368136606,35.015900368136606 0 0,0 -0.35219360694823126,-0.4891661163277333 l 11.444515975858357 -8.091261780949537" fill="#ff5b08" stroke="none" /><path d="M 82.85270091963577 112.12312394758628 l -16.860548210648727 11.92039135866095 a41.64882117960366,41.64882117960366 0 0,0 -0.4088309626538097,-0.5889514937568534 l 17.06324008046467 -11.628398602717084" fill="#ffbf11" stroke="none" /><path d="M 82.05923443525364 110.91462005526583 l -17.591210819369174 10.701961502845734 a41.590839664760715,41.590839664760715 0 0,0 -0.3668294715086773,-0.6148272942403235 l 17.77282116657608 -10.3975721147193" fill="#ffbe11" stroke="none" /><line stroke="#e1ed5e" stroke-width="0.3" x1="26.63291911575756" x2="22.317208475507996" y1="142.92168965132927" y2="145.44649492493687" /><path d="M 25.769776987707644 143.4266507060508 a86.0,86.0 0 0,1 -11.730757126820373,-40.83630448921669" fill="none" id="id105" stroke="none" /><text fill="#e1ed5e" style="font-size:6.75px; font-family:Arial;" text-anchor="middle"><textPath startOffset="21.46611528233685" xlink:href="#id105">September</textPath></text><path d="M 80.87730276802145 108.67885076344099 l -18.86582070849735 8.562267156804339 a41.717905537714415,41.717905537714415 0 0,0 -0.29114909442335496,-0.6564643468084906 l 19.010410887651982 -8.236254473503152" fill="#ffc011" stroke="none" /><path d="M 80.20201598880116 107.00284435728193 l -19.4351165984456 6.874492702264776 a41.61510143338294,41.61510143338294 0 0,0 -0.23306273808540143,-0.6773894111256222 l 19.550570167474227 -6.538930588049858" fill="#ffbf11" stroke="none" /><line stroke="#e1ed5e" stroke-width="0.3" x1="15.007084014347285" x2="10.007500721073583" y1="101.09737516637583" y2="101.16192664675087" /><path d="M 14.007167355692545 101.11028546245083 a86.0,86.0 0 0,1 10.666146001902534,-42.60595125391555" fill="none" id="id106" stroke="none" /><text fill="#e1ed5e" style="font-size:6.75px; font-family:Arial;" text-anchor="middle"><textPath startOffset="22.20632615414155" xlink:href="#id106">October</textPath></text><path d="M 79.16333360222342 97.38593545837743 l -22.764551741426114 -2.855927449102131 a43.942997571864964,43.942997571864964 0 0,0 0.10061691126891234,-0.7497128583188762 l 22.712018831099368 3.247358649485667" fill="#ffe015" stroke="none" /><path d="M 79.32604984820605 96.31383870115002 l -24.61944083440112 -4.389641521662544 a46.0077152032584,46.0077152032584 0 0,0 0.14572237482409459,-0.7784547532179155 l 24.540232735667168 4.812774352343032" fill="#fffd17" stroke="none" /><path d="M 79.54389044137918 95.25157060432595 l -26.131330053383504 -6.065805202008935 a47.826114200673615,47.826114200673615 0 0,0 0.1930517035808373,-0.800323944879093 l 26.023045549541852 6.514714378547424" fill="#e8ff1a" stroke="none" /><path d="M 79.71946130924805 94.55025226153421 l -28.013814517590934 -7.527818892831425 a50.00761729458761,50.00761729458761 0 0,0 0.23054280602716837,-0.8293851355550602 l 27.880084940997403 8.008915331805428" fill="#cbff1d" stroke="none" /><path d="M 80.02781315780177 93.51064311812611 l -24.758738004602552 -8.044601631565568 a47.032877731651915,47.032877731651915 0 0,0 0.25680557344821675,-0.7678159777798113 l 24.616595137382564 8.469590712267703" fill="#f3ff19" stroke="none" /><path d="M 80.38941819471856 92.48833698450439 l -27.81954646517611 -10.656035622260124 a50.79057335317616,50.79057335317616 0 0,0 0.3197543524998568,-0.8137399498376591 l 27.631998562794564 11.133324576993546" fill="#c1ff1e" stroke="none" /><path d="M 80.803312248108 91.48605970444005 l -30.288499953174174 -13.433279927053 a54.13376282603588,54.13376282603588 0 0,0 0.3851170828697717,-0.848554442899724 l 30.052780553341048 13.952656378794796" fill="#96ff23" stroke="none" /><path d="M 81.43458229118936 90.18545643968196 l -25.87299704155918 -13.677669982068512 a50.26586120466828,50.26586120466828 0 0,0 0.4109638692690464,-0.7614536351607373 l 25.633725073071663 14.121004600561722" fill="#c8ff1d" stroke="none" /><line stroke="#e1ed5e" stroke-width="0.3" x1="26.266209847984243" x2="21.928928074336255" y1="57.71137044288968" y2="55.22380399835378" /><path d="M 25.398753493254645 57.2138571539825 a86.0,86.0 0 0,1 29.58750427330803,-30.4925239686951" fill="none" id="id107" stroke="none" /><text fill="#e1ed5e" style="font-size:6.75px; font-family:Arial;" text-anchor="middle"><textPath startOffset="21.46611528233685" xlink:href="#id107">November</textPath></text><path d="M 82.54541684631803 88.32363383020207 l -23.39730339518483 -15.651790674267989 a49.149819848045745,49.149819848045745 0 0,0 0.4764619446595744,-0.6991491114719663 l 23.124416984856516 16.05221780901037" fill="#d6ff1c" stroke="none" /><path d="M 83.17141714833178 87.43820079747577 l -18.29434490469987 -13.655926304678768 a43.82909062426569,43.82909062426569 0 0,0 0.4564988875059447,-0.600699025759706 l 18.056570076969816 13.968810106319502" fill="#ffdf14" stroke="none" /><path d="M 83.84228863543731 86.58626213691792 l -16.852200603326988 -13.99028588942862 a42.90262003603039,42.90262003603039 0 0,0 0.47660599561907346,-0.5641511695434461 l 16.60888399422079 14.278296008601181" fill="#ffd113" stroke="none" /><path d="M 84.07557802195018 86.31012108654704 l -38.42622769509479 -33.034191443289245 a71.6737878906556,71.6737878906556 0 0,0 0.8123306993415174,-0.9286344149074885 l 37.85190513217543 33.69074141439968" fill="#3cffa1" stroke="none" /><path d="M 84.5562425177563 85.77008943001954 l -15.275312018986677 -14.07470456646595 a41.77095245554946,41.77095245554946 0 0,0 0.49176878283000747,-0.5245846499362479 l 15.030775914186211 14.33555863328025" fill="#ffc111" stroke="none" /><path d="M 84.80347519578584 85.50635884689758 l -15.836607142544713 -15.104117814031431 a42.88452651366805,42.88452651366805 0 0,0 0.5140746598886413,-0.5297991254536011 l 15.574268218952955 15.374481135035154" fill="#ffd113" stroke="none" /><path d="M 85.05521093208273 85.24692304244772 l -33.80867845692698 -33.37497992386819 a68.5070102608287,68.5070102608287 0 0,0 0.8356687364949926,-0.8320801093658258 l 33.22917392026467 33.95199588388412" fill="#37ff79" stroke="none" /><path d="M 85.31137513191541 84.99185889309783 l -12.559596880429657 -12.832801158729351 a38.956176078953554,38.956176078953554 0 0,0 0.4832731730167676,-0.46490840954530094 l 12.336840463800462 13.047092655036963" fill="#ff980e" stroke="none" /><path d="M 85.57189188830299 84.74124197986013 l -14.967452875252073 -15.829153748589132 a42.78501214067518,42.78501214067518 0 0,0 0.5394825669805787,-0.5013902510743138 l 14.692762424476639 16.084448585738095" fill="#ffd013" stroke="none" /><path d="M 85.83668400450813 84.49514656593479 l -29.158936199146808 -31.920846234379944 a64.23406046839509,64.23406046839509 0 0,0 0.8227741184806786,-0.7386947273281738 l 28.60515109307016 32.418039970477395" fill="#31ff41" stroke="none" /><path d="M 86.37877921826538 84.01681056812373 l -14.065321443628331 -16.5042987450288 a42.684675334847654,42.684675334847654 0 0,0 0.5633207645904947,-0.4717649401066155 l 13.779143142078727 16.743964842529234" fill="#ffce13" stroke="none" /><path d="M 86.65592168130627 83.78471172551755 l -23.32809743984531 -28.34754232162939 a57.712168089606024,57.712168089606024 0 0,0 0.7725092529267875,-0.6246487581159449 l 22.83668478835402 28.74489717700947" fill="#6bff28" stroke="none" /><path d="M 86.93701828274178 83.55741782278169 l -6.691363255693547 -8.42252500927888 a31.7570102608287,31.7570102608287 0 0,0 0.4309387652287741,-0.33635454169848544 l 6.545391935305347 8.536457940200588" fill="#ff2703" stroke="none" /><path d="M 87.22198572758235 83.33499621200491 l -13.309972805024369 -17.358780674759352 a42.874246103234896,42.874246103234896 0 0,0 0.5895287365246875,-0.4440208221379457 l 13.009197914741293 17.585318086403152" fill="#ffd113" stroke="none" /><path d="M 87.51073957382395 83.11751280151077 l -13.976438162754265 -18.892795114483853 a44.50060703375891,44.50060703375891 0 0,0 0.6197338548629828,-0.45026300160266025 l 13.649158991537501 19.13057735090318" fill="#ffe815" stroke="none" /><path d="M 87.80319425747018 82.90503203632743 l -24.59924808223045 -34.47815491803838 a63.35405733531762,63.35405733531762 0 0,0 0.8931982646675684,-0.6257424649403381 l 24.002118677979222 34.89648222574265" fill="#30ff35" stroke="none" /><path d="M 88.39885842347998 82.49532879139004 l -12.70746176680851 -19.173969962936162 a44.00262395237722,44.00262395237722 0 0,0 0.634964095694492,-0.4129983105150935 l 12.375530645329729 19.38986719761079" fill="#ffe115" stroke="none" /><path d="M 88.70189139769569 82.29822771554957 l -28.83044220469348 -45.17127076149756 a74.58766742382706,74.58766742382706 0 0,0 1.088201560375687,-0.6814317172754553 l 28.04862149194555 45.66084682009594" fill="#40ffc4" stroke="none" /><path d="M 89.00827224532344 82.1063720568725 l -11.348375614187383 -18.4742212990796 a42.68138560350904,42.68138560350904 0 0,0 0.629322669011353,-0.37915986653993755 l 11.028690878958383 18.666827775078158" fill="#ffce13" stroke="none" /><line stroke="#e1ed5e" stroke-width="0.3" x1="56.76296977257108" x2="54.21961505331056" y1="26.818313649435495" y2="22.513508569990535" /><path d="M 56.25429882871898 25.957352633546506 a86.0,86.0 0 0,1 42.26535254187918,-11.944610805530505" fill="none" id="id108" stroke="none" /><text fill="#e1ed5e" style="font-size:6.75px; font-family:Arial;" text-anchor="middle"><textPath startOffset="22.20632615414155" xlink:href="#id108">December</textPath></text><path d="M 89.3179101791058 81.91981866633112 l -32.04626946268261 -54.240544001006626 a84.0,84.0 0 0,0 1.25121307013871,-0.7247833704398112 l 31.107859660078574 54.78413152883649" fill="#4dd2ff" stroke="none" /><path d="M 89.63071344664047 81.73862282372117 l -10.700052743447696 -18.843890363013347 a42.66987154382392,42.66987154382392 0 0,0 0.641827835384961,-0.35717649549948005 l 10.374100818990689 19.02528225607301" fill="#ffce13" stroke="none" /><path d="M 89.94658935756843 81.56283822128135 l -20.570827881640202 -37.725275040018154 a63.96923709563718,63.96923709563718 0 0,0 0.9712813389404417,-0.5188248536590693 l 19.91840149617146 38.07377862017897" fill="#31ff3d" stroke="none" /><path d="M 90.58718382345135 81.22770947309562 l -10.262712303087092 -20.46726647308509 a43.89611890028981,43.89611890028981 0 0,0 0.6783596118986093,-0.33286811547519657 l 9.908881424178059 20.640889748695116" fill="#ffe014" stroke="none" /><path d="M 90.91171255644093 81.06846463323043 l -17.97939030014657 -37.45232151315882 a62.54437220960288,62.54437220960288 0 0,0 0.9745657784556816,-0.4575717004853412 l 17.33204631039128 37.75625819628417" fill="#34ff2f" stroke="none" /><path d="M 91.56875222667455 80.76684994638697 l -17.092972986369748 -38.99205943742978 a63.57405811858699,63.57405811858699 0 0,0 1.006032956951875,-0.4307308094492297 l 16.419256271627567 39.280509774841796" fill="#30ff38" stroke="none" /><path d="M 92.23578459929587 80.48803036053334 l -22.25469095537067 -55.9274610307083 a81.19262551891596,81.19262551891596 0 0,0 1.3030134132262605,-0.5055489608038315 l 21.288694377144733 56.302252695402686" fill="#49efff" stroke="none" /><path d="M 97.47563105711357 79.15227682838746 l -5.001382488120992 -41.30435762233519 a62.606054672201765,62.606054672201765 0 0,0 1.0709609238164697,-0.12033493827671461 l 4.289654860794804 41.384328514082505" fill="#33ff2f" stroke="none" /><path d="M 99.63851952072746 79.00311137660856 l -0.7491086222568537 -43.51258563118814 a64.51903344560193,64.51903344560193 0 0,0 1.1105891015293787,-0.009559191022355865 l 1.0659089002228603e-14 43.519033445601934" fill="#32ff45" stroke="none" /></svg>