<?xml version="1.0" encoding="utf-8" ?>
<svg baseProfile="full" height="200mm" version="1.1" viewBox="0,0,200,200" width="200mm" xmlns="http://www.w3.org/2000/svg" xmlns:ev="http://www.w3.org/2001/xml-events" xmlns:xlink="http://www.w3.org/1999/xlink"><defs /><rect fill="#1a1a1a" height="200" width="200" x="0" y="0" /><text alignment-baseline="middle" fill="#e1ed5e" style="dominant-baseline: central; font-size:9.0px; font-family:Arial;" text-anchor="middle" x="100.0" y="100.0">2021</text><line stroke="#e1ed5e" stroke-width="0.3" x1="100.0" x2="100.0" y1="15.0" y2="10.0" /><path d="M 100.0 14.0 a86.0,86.0 0 0,1 42.46469731375804,11.215312516191453" fill="none" id="id85" stroke="none" /><text fill="#e1ed5e" style="font-size:6.75px; font-family:Arial;" text-anchor="middle"><textPath startOffset="22.20632615414155" xlink:href="#id85">January</textPath></text><path d="M 101.80526077348638 79.07773832637324 l 5.413747640608442 -62.74320388241911 a83.97633124394439,83.97633124394439 0 0,0 1.4390938825639068,0.13665930447022984 l -6.492966650262592 62.640719033433705" fill="#4dd3ff" stroke="none" /><path d="M 103.2404852339499 79.25152402106235 l 9.658597733872634 -61.842955175945725 a83.59264825104304,83.59264825104304 0 0,0 1.4197645815549187,0.23427332096892053 l -10.721691521566427 61.66753559203718" fill="#4cdcff" stroke="none" /><path d="M 106.74666289553966 80.11325718540242 l 20.04708586204952 -59.09162009329133 a83.39956103058945,83.39956103058945 0 0,0 1.355512906331595,0.47291183682547644 l -21.061280772444388 58.73778740329365" fill="#4be1ff" stroke="none" /><line stroke="#e1ed5e" stroke-width="0.3" x1="143.23703022742887" x2="145.7803849466894" y1="26.81831364943548" y2="22.513508569990506" /><path d="M 143.74570117128098 25.957352633546492 a86.0,86.0 0 0,1 28.547481713284135,27.462654790039103" fill="none" id="id86" stroke="none" /><text fill="#e1ed5e" style="font-size:6.75px; font-family:Arial;" text-anchor="middle"><textPath startOffset="19.985693538727396" xlink:href="#id86">February</textPath></text><line stroke="#e1ed5e" stroke-width="0.3" x1="172.23445277983987" x2="176.4835382374775" y1="55.19839476539836" y2="52.563006222186495" /><path d="M 173.08426987136738 54.67131705675599 a86.0,86.0 0 0,1 12.851231095245387,41.99856678651699" fill="none" id="id87" stroke="none" /><text fill="#e1ed5e" style="font-size:6.75px; font-family:Arial;" text-anchor="middle"><textPath startOffset="22.20632615414155" xlink:href="#id87">March</textPath></text><path d="M 120.53481517161879 95.60439243477599 l 58.265553514061054 -12.472111663919197 a80.58547050797856,80.58547050797856 0 0,0 0.27867493368145974,1.3589179460190801 l -58.471607743657515 11.467318061736705" fill="#42ffd5" stroke="none" /><path d="M 120.73433829027371 96.67025291283417 l 49.65368299952641 -7.973932132296948 a71.28987799814129,71.28987799814129 0 0,0 0.18414551137288032,1.213288841618849 l -49.78358440433859 7.118044178286016" fill="#95ff23" stroke="none" /><line stroke="#e1ed5e" stroke-width="0.3" x1="184.98032266829074" x2="189.97916517819016" y1="98.17113171792111" y2="98.06355123074" /><path d="M 185.9800911702706 98.14961562048488 a86.0,86.0 0 0,1 -9.607161424134198,41.387399972396054" fill="none" id="id88" stroke="none" /><text fill="#e1ed5e" style="font-size:6.75px; font-family:Arial;" text-anchor="middle"><textPath startOffset="21.466115282336823" xlink:href="#id88">April</textPath></text><path d="M 120.9904718944345 100.63252640178507 l 62.54183589941211 1.884634257935688 a83.57022521899037,83.57022521899037 0 0,0 -0.05570499572430741,1.437498420060154 l -62.500128770836604 -2.960909925009848" fill="#4cdcff" stroke="none" /><line stroke="#e1ed5e" stroke-width="0.3" x1="174.80103733775053" x2="179.2010983576182" y1="140.37084112569926" y2="142.7455964860345" /><path d="M 175.68104954172406 140.8457921977663 a86.0,86.0 0 0,1 -30.038265399797805,32.042727171017184" fill="none" id="id89" stroke="none" /><text fill="#e1ed5e" style="font-size:6.75px; font-family:Arial;" text-anchor="middle"><textPath startOffset="22.206326154141568" xlink:href="#id89">May</textPath></text><line stroke="#e1ed5e" stroke-width="0.3" x1="143.8653032363475" x2="146.44561519142675" y1="172.8068346515853" y2="177.08958963109032" /><path d="M 144.38136562736335 173.6633856474863 a86.0,86.0 0 0,1 -40.68145358897372,12.25698825130547" fill="none" id="id90" stroke="none" /><text fill="#e1ed5e" style="font-size:6.75px; font-family:Arial;" text-anchor="middle"><textPath startOffset="21.466115282336833" xlink:href="#id90">June</textPath></text><line stroke="#e1ed5e" stroke-width="0.3" x1="102.19456741930631" x2="102.32365962044197" y1="184.97166512339345" y2="189.96999836594603" /><path d="M 102.22038585953345 185.97133177190398 a86.0,86.0 0 0,1 -42.740103519485714,-10.115201625700543" fill="none" id="id91" stroke="none" /><text fill="#e1ed5e" style="font-size:6.75px; font-family:Arial;" text-anchor="middle"><textPath startOffset="22.20632615414155" xlink:href="#id91">July</textPath></text><path d="M 94.46302465271185 120.25689768951611 l -11.152670273693625 40.80178915908803 a63.298558519368044,63.298558519368044 0 0,0 -1.0485521720378204,-0.2963313175224424 l 11.85335361383606 -40.603769048227065" fill="#ff6409" stroke="none" /><path d="M 92.40401165467489 119.57807347666478 l -18.1468316274264 46.77205740962891 a71.16904276985744,71.16904276985744 0 0,0 -1.1382943573652713,-0.45295081651386 l 18.949247060833528 -46.45275974870898" fill="#98ff23" stroke="none" /><line stroke="#e1ed5e" stroke-width="0.3" x1="58.666819895761336" x2="56.23545636021788" y1="174.27360380694188" y2="178.64263932499728" /><path d="M 58.180547188652646 175.14741091055294 a86.0,86.0 0 0,1 -31.652253787137756,-30.449443065178592" fill="none" id="id92" stroke="none" /><text fill="#e1ed5e" style="font-size:6.75px; font-family:Arial;" text-anchor="middle"><textPath startOffset="22.20632615414155" xlink:href="#id92">August</textPath></text><path d="M 83.06392112726016 112.41649034213515 l -34.23952528395664 25.102311946115982 a63.45551974373677,63.45551974373677 0 0,0 -0.6382422883421819,-0.8864627162592463 l 34.66654736467443 -24.5092156244056" fill="#ff6909" stroke="none" /><path d="M 82.85270091963577 112.12312394758628 l -51.20591123749526 36.20252996532386 a83.71099203132107,83.71099203132107 0 0,0 -0.8217194265663984,-1.1837481206997216 l 51.82149157122379 -35.31574058243712" fill="#4cd9ff" stroke="none" /><path d="M 82.44556493220864 111.52570212397912 l -42.98620289077734 28.223418643022434 a72.42348684080437,72.42348684080437 0 0,0 -0.6752460238431441,-1.0479968242520799 l 43.46565377799753 -27.479300218848906" fill="#75ff27" stroke="none" /><path d="M 82.24976979558568 111.22182372390057 l -33.50898657536322 21.184623308252128 a60.64392066913175,60.64392066913175 0 0,0 -0.5502291084114722,-0.8871445195214837 l 33.868680323442646 -20.604682457365378" fill="#ff0000" stroke="none" /><line stroke="#e1ed5e" stroke-width="0.3" x1="26.63291911575756" x2="22.317208475507996" y1="142.92168965132927" y2="145.44649492493687" /><path d="M 25.769776987707644 143.4266507060508 a86.0,86.0 0 0,1 -11.730757126820373,-40.83630448921669" fill="none" id="id93" stroke="none" /><text fill="#e1ed5e" style="font-size:6.75px; font-family:Arial;" text-anchor="middle"><textPath startOffset="21.46611528233685" xlink:href="#id93">September</textPath></text><path d="M 81.18737489456691 109.33194174019688 l -56.032778748173655 27.79487838027913 a83.5478021869377,83.5478021869377 0 0,0 -0.6279880234383703,-1.2938413321914226 l 56.50292002822674 -26.82624809212242" fill="#4cddff" stroke="none" /><path d="M 80.58989483394504 108.01547362559985 l -58.22570985361158 24.044518959106163 a83.99501710398829,83.99501710398829 0 0,0 -0.5403574869597532,-1.3411229682391261 l 58.63096995482873 -23.038696623024233" fill="#4dd2ff" stroke="none" /><line stroke="#e1ed5e" stroke-width="0.3" x1="15.007084014347285" x2="10.007500721073583" y1="101.09737516637583" y2="101.16192664675087" /><path d="M 14.007167355692545 101.11028546245083 a86.0,86.0 0 0,1 10.666146001902534,-42.60595125391555" fill="none" id="id94" stroke="none" /><text fill="#e1ed5e" style="font-size:6.75px; font-family:Arial;" text-anchor="middle"><textPath startOffset="22.20632615414155" xlink:href="#id94">October</textPath></text><path d="M 79.71946130924805 94.55025226153421 l -60.19798677206295 -16.176288375458316 a83.33353765843435,83.33353765843435 0 0,0 0.3841804238496581,-1.3821013910735507 l 59.910619577646926 17.21010106995081" fill="#4be2ff" stroke="none" /><path d="M 80.38941819471856 92.48833698450439 l -58.34897448377432 -22.35006783449049 a83.48302453878551,83.48302453878551 0 0,0 0.5255711580672621,-1.3375212704945614 l 57.955609775825366 23.35113810988081" fill="#4bdfff" stroke="none" /><line stroke="#e1ed5e" stroke-width="0.3" x1="26.266209847984243" x2="21.928928074336255" y1="57.71137044288968" y2="55.22380399835378" /><path d="M 25.398753493254645 57.2138571539825 a86.0,86.0 0 0,1 29.58750427330803,-30.4925239686951" fill="none" id="id95" stroke="none" /><text fill="#e1ed5e" style="font-size:6.75px; font-family:Arial;" text-anchor="middle"><textPath startOffset="21.46611528233685" xlink:href="#id95">November</textPath></text><path d="M 84.5562425177563 85.77008943001954 l -46.331272446731106 -42.68973170994139 a84.0,84.0 0 0,0 0.988930712118167,-1.05492233248779 l 45.58957441264248 43.48092345930723" fill="#4dd2ff" stroke="none" /><line stroke="#e1ed5e" stroke-width="0.3" x1="56.76296977257108" x2="54.21961505331056" y1="26.818313649435495" y2="22.513508569990535" /><path d="M 56.25429882871898 25.957352633546506 a86.0,86.0 0 0,1 42.26535254187918,-11.944610805530505" fill="none" id="id96" stroke="none" /><text fill="#e1ed5e" style="font-size:6.75px; font-family:Arial;" text-anchor="middle"><textPath startOffset="22.20632615414155" xlink:href="#id96">December</textPath></text><path d="M 93.94186890950719 79.89281104454417 l -16.263266318010714 -53.978457052922685 a77.37523975243707,77.37523975243707 0 0,0 1.2785697666710125,-0.3732495755827714 l 15.331706333616278 54.25040495742415" fill="#37ff79" stroke="none" /></svg>