<?xml version="1.0" encoding="utf-8" ?>
<svg baseProfile="full" height="200mm" version="1.1" viewBox="0,0,200,200" width="200mm" xmlns="http://www.w3.org/2000/svg" xmlns:ev="http://www.w3.org/2001/xml-events" xmlns:xlink="http://www.w3.org/1999/xlink"><defs /><rect fill="#1a1a1a" height="200" width="200" x="0" y="0" /><text alignment-baseline="middle" fill="#e1ed5e" style="dominant-baseline: central; font-size:9.0px; font-family:Arial;" text-anchor="middle" x="100.0" y="100.0">2023</text><line stroke="#e1ed5e" stroke-width="0.3" x1="100.0" x2="100.0" y1="15.0" y2="10.0" /><path d="M 100.0 14.0 a86.0,86.0 0 0,1 42.46469731375804,11.215312516191453" fill="none" id="id109" stroke="none" /><text fill="#e1ed5e" style="font-size:6.75px; font-family:Arial;" text-anchor="middle"><textPath startOffset="22.20632615414155" xlink:href="#id109">January</textPath></text><path d="M 100.36148047927253 79.00311137660856 l 0.5138189319072739 -29.84559195992769 a50.850014561693044,50.850014561693044 0 0,0 0.8750400410737612,0.022599702641348578 l -1.027485608175903 29.832325465143985" fill="#b8ff1f" stroke="none" /><path d="M 103.2404852339499 79.25152402106235 l 4.505455047771336 -28.847940689092518 a50.19765071352296,50.19765071352296 0 0,0 0.8525731395216997,0.1406818731496306 l -5.001357393431911 28.76611255300326" fill="#c0ff1e" stroke="none" /><path d="M 105.01212808612495 79.60689891045804 l 6.991691731329336 -28.447452621696474 a50.29404912144452,50.29404912144452 0 0,0 0.8389313504419401,0.21386228081337047 l -7.480331970456302 28.322887344714236" fill="#bfff1e" stroke="none" /><path d="M 106.0581310904928 79.89281104454417 l 8.545084346205506 -28.361490205964756 a50.620813513251136,50.620813513251136 0 0,0 0.832145012859868,0.2585515061699237 l -9.032014731776092 28.21019856491231" fill="#bbff1f" stroke="none" /><path d="M 106.40334571778207 80.00007090966166 l 2.952179747346959 -9.22070870621726 a30.681778468109894,30.681778468109894 0 0,0 0.5015991234407072,0.16536934466231026 l -3.110461693030084 9.168525637295714" fill="#ff2603" stroke="none" /><path d="M 107.4271985657038 80.35727306442388 l 11.547915081708439 -30.540794166006695 a53.65110183477332,53.65110183477332 0 0,0 0.8610154540302791,0.33406061948608967 l -12.071913700738385 30.337490842630057" fill="#95ff23" stroke="none" /><path d="M 108.09893153111575 80.62456947434976 l 11.327182464691253 -27.098517385015338 a50.37064362683235,50.37064362683235 0 0,0 0.7970944289405777,0.34127423581160704 l -11.791960651422146 26.89952362124094" fill="#beff1f" stroke="none" /><line stroke="#e1ed5e" stroke-width="0.3" x1="143.23703022742887" x2="145.7803849466894" y1="26.81831364943548" y2="22.513508569990506" /><path d="M 143.74570117128098 25.957352633546492 a86.0,86.0 0 0,1 28.547481713284135,27.462654790039103" fill="none" id="id110" stroke="none" /><text fill="#e1ed5e" style="font-size:6.75px; font-family:Arial;" text-anchor="middle"><textPath startOffset="19.985693538727396" xlink:href="#id110">February</textPath></text><path d="M 110.68208982089419 81.91981866633111 l 15.693296116696098 -26.561997162562296 a51.85156780895059,51.85156780895059 0 0,0 0.7645339199875962,0.46062313236410896 l -16.148192102901334 26.28792742073957" fill="#acff21" stroke="none" /><path d="M 111.2981086023043 82.29822771554956 l 10.178748653133452 -15.947969446998961 a39.91942529851471,39.91942529851471 0 0,0 0.5760429608186268,0.3746743653938383 l -10.45175863973636 15.770396157445594" fill="#ffb210" stroke="none" /><path d="M 112.19680574252982 82.90503203632743 l 17.08537249423013 -23.946753076326 a50.416949810697986,50.416949810697986 0 0,0 0.702127290823552,0.5101253368564956 l -17.495045101407467 23.64910850465283" fill="#beff1f" stroke="none" /><path d="M 112.77801427241765 83.33499621200491 l 17.907862375347268 -23.35531859314414 a50.43063780215513,50.43063780215513 0 0,0 0.6843376188647805,0.5341363663073997 l -18.30723254937148 23.043603837613514" fill="#bdff1f" stroke="none" /><path d="M 113.6212207817346 84.01681056812373 l 25.524747573033995 -29.95083056048031 a60.351810503834585,60.351810503834585 0 0,0 0.7848787481663134,0.6806391160862036 l -26.036520119847072 29.507026450974433" fill="#47ff2c" stroke="none" /><path d="M 114.16331599549186 84.49514656593476 l 16.28839283623168 -17.831215774797094 a45.150859139889334,45.150859139889334 0 0,0 0.5693138828634323,0.5291152080531746 l -16.59291460288996 17.548195980669277" fill="#fffb17" stroke="none" /><path d="M 115.19652480421416 85.50635884689758 l 17.54237912620381 -16.73099286202364 a45.241724104455876,45.241724104455876 0 0,0 0.5326301242389565,0.5681726799766765 l -17.827776572413228 16.426550765168905" fill="#fffc17" stroke="none" /><path d="M 115.4437574822437 85.77008943001952 l 26.658992019808828 -24.56365122049231 a57.250169886418796,57.250169886418796 0 0,0 0.6615294189881835,0.7304773071148023 l -27.077865079413044 24.101121126107962" fill="#6bff28" stroke="none" /><path d="M 115.9244219780498 86.31012108654704 l 29.554492229776805 -25.40735359386527 a59.97437142025046,59.97437142025046 0 0,0 0.666256395958381,0.7886374247296216 l -29.987459239222304 24.89485721950654" fill="#4cff2c" stroke="none" /><path d="M 116.38621287248628 86.86637796730983 l 24.45876394061186 -19.60380738872015 a52.3455004368508,52.3455004368508 0 0,0 0.5574694081889787,0.7079295364952466 l -24.7925874293948 19.179885458271865" fill="#a5ff21" stroke="none" /><path d="M 116.82858285166822 87.43820079747576 l 26.47642268004981 -19.76348859791096 a54.03931657120668,54.03931657120668 0 0,0 0.5500105878799435,0.750213823753906 l -26.812695880443382 19.304812330485557" fill="#91ff24" stroke="none" /><path d="M 117.45458315368197 88.32363383020206 l 24.25999942093223 -16.228897248579457 a50.18774876225609,50.18774876225609 0 0,0 0.4741627722972737,0.7221824326466972 l -24.535758828587426 15.808896751955087" fill="#c1ff1e" stroke="none" /><line stroke="#e1ed5e" stroke-width="0.3" x1="172.23445277983987" x2="176.4835382374775" y1="55.19839476539836" y2="52.563006222186495" /><path d="M 173.08426987136738 54.67131705675599 a86.0,86.0 0 0,1 12.851231095245387,41.99856678651699" fill="none" id="id111" stroke="none" /><text fill="#e1ed5e" style="font-size:6.75px; font-family:Arial;" text-anchor="middle"><textPath startOffset="22.20632615414155" xlink:href="#id111">March</textPath></text><path d="M 117.84615892207809 88.93136811851018 l 24.7790032190985 -15.368554444684689 a50.158042908455485,50.158042908455485 0 0,0 0.4487573262562136,0.7376390515710983 l -25.039876343640938 14.939747619906509" fill="#c1ff1e" stroke="none" /><path d="M 118.21658344932153 89.55222093294921 l 25.372403636016763 -14.551865245566251 a50.249199106882834,50.249199106882834 0 0,0 0.42386960252187594,0.7540167262451746 l -25.619130879831072 14.112965009386285" fill="#c0ff1e" stroke="none" /><path d="M 118.56541770881063 90.18545643968196 l 55.696253126431905 -29.44363068095414 a84.0,84.0 0 0,0 0.6647622673595346,1.2841091109586207 l -56.19482482695156 28.480548847735175" fill="#4dd2ff" stroke="none" /><path d="M 118.89224826269711 90.83032412892265 l 26.24902969817872 -12.740415588219655 a50.17755557712844,50.17755557712844 0 0,0 0.3704580402516025,0.7802791113490283 l -26.464445932272078 12.286694061230085" fill="#c1ff1e" stroke="none" /><path d="M 119.196687751892 91.48605970444005 l 19.647672941287002 -8.713957143586883 a42.49335016017862,42.49335016017862 0 0,0 0.29079472323455613,0.6711943141672508 l -19.79475837436424 8.37446368483303" fill="#ffd714" stroke="none" /><path d="M 119.34039704204932 91.81776055985345 l 40.3021720379615 -17.050426671987186 a64.76050868847685,64.76050868847685 0 0,0 0.4255021783441806,1.0303872753904726 l -40.589695903191874 16.35416482614341" fill="#32ff4d" stroke="none" /><path d="M 120.37134235888165 94.90015583598534 l 28.39986673452755 -7.109737398415862 a50.27628385593632,50.27628385593632 0 0,0 0.2029418950361854,0.8413251735361811 l -28.518041429824557 6.619826993220275" fill="#bfff1e" stroke="none" /><path d="M 120.6074358757038 95.95851677861258 l 24.108359357160136 -4.728076332486159 a45.56761479468014,45.56761479468014 0 0,0 0.14432842434393026,0.7710082140138613 l -24.186173505413926 4.312390041009735" fill="#fdff18" stroke="none" /><path d="M 120.78858239683441 97.02765380044208 l 27.288924489854864 -3.901763451162226 a48.56644985923697,48.56644985923697 0 0,0 0.11120329622805246,0.8285937226476564 l -27.352043785140754 3.431451386449906" fill="#d5ff1c" stroke="none" /><path d="M 120.91429891909075 98.10471618934814 l 29.02773705496836 -2.630535229173847 a50.14668478788467,50.14668478788467 0 0,0 0.07050508348111359,0.8603406012973203 l -29.068716622268965 2.1304807106687575" fill="#c1ff1e" stroke="none" /><path d="M 120.98425023603335 99.18683210126433 l 29.16323913979745 -1.130114711028039 a50.185127657508986,50.185127657508986 0 0,0 0.02602052398654359,0.8634945132354914 l -29.17837135823964 0.6279500503675484" fill="#c1ff1e" stroke="none" /><line stroke="#e1ed5e" stroke-width="0.3" x1="184.98032266829074" x2="189.97916517819016" y1="98.17113171792111" y2="98.06355123074" /><path d="M 185.9800911702706 98.14961562048488 a86.0,86.0 0 0,1 -9.607161424134198,41.387399972396054" fill="none" id="id112" stroke="none" /><text fill="#e1ed5e" style="font-size:6.75px; font-family:Arial;" text-anchor="middle"><textPath startOffset="21.466115282336823" xlink:href="#id112">April</textPath></text><path d="M 120.99980553446 99.90962569577887 l 30.767990002421804 -0.13241244944809724 a51.76827492476458,51.76827492476458 0 0,0 -0.0038350497913433074,0.891130510240393 l -30.765710655340957 -0.3972275389959805" fill="#adff20" stroke="none" /><path d="M 120.9764740272857 100.99374915477107 l 29.828792174626525 1.4131229573101174 a50.862246383846234,50.862246383846234 0 0,0 -0.04895769530833807,0.8741725376498306 l -29.800048128430657 -1.9263672112953711" fill="#b8ff1f" stroke="none" /><path d="M 120.89721153311464 102.0752229133903 l 31.94847378771214 3.172681902896344 a53.105620813513255,53.105620813513255 0 0,0 -0.0981637132065915,0.9088740689984883 l -31.889127773004496 -3.722152293779624" fill="#9cff22" stroke="none" /><path d="M 120.76222939487914 103.15116336523771 l 28.87570103964186 4.382576144935488 a50.206387729346666,50.206387729346666 0 0,0 -0.1370353364049089,0.8533191706038112 l -28.795983948875662 -4.878974545232504" fill="#c0ff1e" stroke="none" /><path d="M 120.49622156327973 104.57218783832717 l 28.523934398235376 6.362967220773197 a50.22502669643724,50.22502669643724 0 0,0 -0.19549358372807885,0.842181242158126 l -28.410180248576744 -6.853017120279887" fill="#c0ff1e" stroke="none" /><path d="M 120.32669344350535 105.2749913415812 l 30.741350678868148 7.977704741316569 a52.75963498689448,52.75963498689448 0 0,0 -0.23568965950601165,0.8770889017273061 l -30.59947294302036 -8.505684576219423" fill="#a0ff22" stroke="none" /><path d="M 120.02730092923936 106.31721596034902 l 30.059699127265276 9.481737542217173 a52.51965828560334,52.51965828560334 0 0,0 -0.2793739430705077,0.8598245853038443 l -29.892032933178523 -9.997761027498813" fill="#a3ff21" stroke="none" /><path d="M 119.79798401119884 107.00284435728193 l 30.22894370400889 10.692431498301485 a53.06426560528104,53.06426560528104 0 0,0 -0.31200711475366694,0.8585095780783847 l -30.040412328249996 -11.211188873385998" fill="#9dff22" stroke="none" /><path d="M 119.54520255179757 107.68017299344265 l 29.403593787168308 11.553970152823975 a52.59217551694011,52.59217551694011 0 0,0 -0.3383364487073858,0.8397233189215106 l -29.200354724203535 -12.058392839588299" fill="#a2ff22" stroke="none" /><path d="M 119.12269723197855 108.67885076344098 l 28.539114647983393 12.952499009207676 a52.34084069507814,52.34084069507814 0 0,0 -0.37940973951112467,0.8172148250319841 l -28.31193029163244 -13.441833901518491" fill="#a5ff21" stroke="none" /><path d="M 118.81262510543309 109.33194174019688 l 28.752606021181844 14.262637072962919 a53.095718862246386,53.095718862246386 0 0,0 -0.41318919072012333,0.8152614725594838 l -28.50283816067545 -14.755452757225097" fill="#9cff22" stroke="none" /><line stroke="#e1ed5e" stroke-width="0.3" x1="174.80103733775053" x2="179.2010983576182" y1="140.37084112569926" y2="142.7455964860345" /><path d="M 175.68104954172406 140.8457921977663 a86.0,86.0 0 0,1 -30.038265399797805,32.042727171017184" fill="none" id="id113" stroke="none" /><text fill="#e1ed5e" style="font-size:6.75px; font-family:Arial;" text-anchor="middle"><textPath startOffset="22.206326154141568" xlink:href="#id113">May</textPath></text><path d="M 118.48025628344425 109.97397251340804 l 28.27461014822999 15.260079737011885 a53.129793223958835,53.129793223958835 0 0,0 -0.4412899666296075,0.8010694707682778 l -28.00774377214887 -15.74451972617797" fill="#9cff22" stroke="none" /><path d="M 118.12598468904814 110.60418214915192 l 25.817091343688002 15.103683682088427 a50.9105912047374,50.9105912047374 0 0,0 -0.4490292914584228,0.7525989206009144 l -25.55328117653135 -15.545844696575445" fill="#b7ff1f" stroke="none" /><path d="M 117.75023020441432 111.22182372390056 l 26.309146176196293 16.632832212068113 a52.125910105814974,52.125910105814974 0 0,0 -0.48599998527445887,0.7542827697901476 l -26.018941327544784 -17.083236581779715" fill="#a8ff21" stroke="none" /><path d="M 115.56566222782051 114.09645910891815 l 22.37891796213856 20.266629028560843 a51.19192311426075,51.19192311426075 0 0,0 -0.5971259737354704,0.6480623106777508 l -22.026745580407365 -20.648842594039927" fill="#b4ff20" stroke="none" /><path d="M 114.81725581225074 114.88116024355365 l 20.57240972981361 20.661135210494542 a50.156586739151535,50.156586739151535 0 0,0 -0.6170455510822574,0.6039089426071217 l -20.21371422635556 -21.012194256024237" fill="#c1ff1e" stroke="none" /><path d="M 114.0293411484842 115.62618273729858 l 20.7721101839713 23.136424308072826 a52.09300067954567,52.09300067954567 0 0,0 -0.6723907711539607,0.5933066780089408 l -20.370777059910754 -23.490554127854057" fill="#a9ff21" stroke="none" /><path d="M 113.20401910651253 116.32954008644616 l 17.144331186254252 21.202562727523286 a48.266770216483835,48.266770216483835 0 0,0 -0.6505498885956699,0.5168361762949847 l -16.776823804941234 -21.494532817823398" fill="#d9ff1c" stroke="none" /><path d="M 112.34349029814194 116.9893568818739 l 17.527081762466292 24.123958456478626 a50.81885253858849,50.81885253858849 0 0,0 -0.7121237872468538,0.5080814141413865 l -17.109230647370552 -24.42208413246423" fill="#b9ff1f" stroke="none" /><path d="M 111.7513745106137 117.40417183066458 l 17.299407884139473 25.620991579528276 a51.914474322881276,51.914474322881276 0 0,0 -0.7449116483380285,0.4936868217277775 l -16.85582153706148 -25.914976422347372" fill="#abff21" stroke="none" /><path d="M 111.1453310114006 117.79835938074945 l 12.016931848674208 19.190248497590343 a43.64226774099602,43.64226774099602 0 0,0 -0.6401298203023803,0.39322001858858435 l -11.684822828439518 -19.394256983007306" fill="#ffe715" stroke="none" /><line stroke="#e1ed5e" stroke-width="0.3" x1="143.8653032363475" x2="146.44561519142675" y1="172.8068346515853" y2="177.08958963109032" /><path d="M 144.38136562736335 173.6633856474863 a86.0,86.0 0 0,1 -40.68145358897372,12.25698825130547" fill="none" id="id114" stroke="none" /><text fill="#e1ed5e" style="font-size:6.75px; font-family:Arial;" text-anchor="middle"><textPath startOffset="21.466115282336833" xlink:href="#id114">June</textPath></text><path d="M 110.21172684928248 118.3499491758327 l 11.579059046292798 20.806974974890547 a44.81186292592952,44.81186292592952 0 0,0 -0.677250621445667,0.36929103768532695 l -11.219185612978482 -21.003206664335647" fill="#fff717" stroke="none" /><path d="M 109.57404056367764 118.69057910512821 l 17.994926200710974 35.12995264730083 a60.470633919036985,60.470633919036985 0 0,0 -0.9305166214706247,0.4665803512135597 l -17.38755567155759 -35.43450083942369" fill="#46ff2c" stroke="none" /><path d="M 108.59647513512805 119.15986991738528 l 13.341602561430163 29.73583539163561 a53.59169012717212,53.59169012717212 0 0,0 -0.8449095529169012,0.3703835183958177 l -12.827772333855508 -29.961083463325885" fill="#96ff23" stroke="none" /><path d="M 107.93186726928326 119.44442032107085 l 11.037755357100163 27.05828870784933 a50.22298805941172,50.22298805941172 0 0,0 -0.8032782470170194,0.3196409922617475 l -10.570356034041277 -27.244276544517145" fill="#c0ff1e" stroke="none" /><path d="M 106.2309692047433 120.05430185196036 l 8.851610793940614 28.488806300410605 a50.83224929618484,50.83224929618484 0 0,0 -0.8378244565191321,0.2524296359703989 l -8.359911362981236 -28.63695130548673" fill="#b8ff1f" stroke="none" /><path d="M 105.53697534728816 120.25689768951611 l 7.561345811744556 27.66301074079703 a49.677798272012424,49.677798272012424 0 0,0 -0.8268031083881315,0.21836621562181974 l -7.084052260544926 -27.789068305722434" fill="#c7ff1e" stroke="none" /><path d="M 103.7750983002368 120.6578951692458 l 10.34983299645686 56.635813972471944 a78.57373070575673,78.57373070575673 0 0,0 -1.3325769050539729,0.23168557600991052 l -9.373407119930837 -56.80557812700286" fill="#45fff3" stroke="none" /><path d="M 103.06178313531737 120.77559828337769 l 1.065575433464013 7.230416449462096 a28.308513736530436,28.308513736530436 0 0,0 -0.48268901881173326,0.06689629973495008 l -0.9409578234654488 -7.2476873146896486" fill="#ff0000" stroke="none" /><path d="M 102.70371172650421 120.8252237178851 l 2.322716610176955 17.890625160221752 a39.04077274051063,39.04077274051063 0 0,0 -0.6671744152120227,0.08078553036155342 l -2.0144147719135517 -17.92795621930866" fill="#ffa50f" stroke="none" /><path d="M 101.98527174616119 120.90594882070398 l 2.907741545974395 30.620037816747182 a51.75779050577614,51.75779050577614 0 0,0 -0.887660111990388,0.07659104954148997 l -2.380237116242465 -30.665553118567335" fill="#adff20" stroke="none" /><path d="M 101.62511606390274 120.93702456842531 l 2.281161988766403 29.38912836087671 a50.47752645374236,50.47752645374236 0 0,0 -0.8668607515707699,0.05978379274417057 l -1.7749384764167029 -29.424040498137167" fill="#bdff1f" stroke="none" /><line stroke="#e1ed5e" stroke-width="0.3" x1="102.19456741930631" x2="102.32365962044197" y1="184.97166512339345" y2="189.96999836594603" /><path d="M 102.22038585953345 185.97133177190398 a86.0,86.0 0 0,1 -42.740103519485714,-10.115201625700543" fill="none" id="id115" stroke="none" /><text fill="#e1ed5e" style="font-size:6.75px; font-family:Arial;" text-anchor="middle"><textPath startOffset="22.20632615414155" xlink:href="#id115">July</textPath></text><path d="M 100.54218724476979 120.99299961872073 l 0.630928890695615 24.428995867353215 a45.437142025046114,45.437142025046114 0 0,0 -0.7820387954249313,0.013463507077185662 l -0.21033040537801578 -24.436236851709563" fill="#ffff18" stroke="none" /><path d="M 99.09653310690486 120.98055641714683 l -1.2562608979612357 29.173235727582753 a50.20027181827007,50.20027181827007 0 0,0 -0.8629950997753131,-0.04460698917709095 l 1.7582440661500376 -29.14728893164346" fill="#c0ff1e" stroke="none" /><path d="M 97.65516085044442 120.86867818915974 l -3.4887559227387244 31.04934709315065 a52.24473352101738,52.24473352101738 0 0,0 -0.8928191500324278,-0.10810796533527939 l 4.022702495822541 -30.984693599090022" fill="#a7ff21" stroke="none" /><path d="M 96.58105272829116 120.7198165907248 l -4.759841066263136 28.84602366057513 a50.23609358314727,50.23609358314727 0 0,0 -0.851982685660204,-0.14812811067715426 l 5.2556727233953895 -28.75981697137697" fill="#c0ff1e" stroke="none" /><path d="M 94.11515582081647 120.15858648285463 l -8.190401865149326 28.056295001315313 a50.22735656732357,50.22735656732357 0 0,0 -0.8278545274125598,-0.24942577811516423 l 8.672131367002132 -27.911153854094422" fill="#c0ff1e" stroke="none" /><path d="M 90.42595943632237 118.69057910512821 l -8.664263067147209 16.914498446824044 a40.00446558586545,40.00446558586545 0 0,0 -0.6101806793675442,-0.31921769252521687 l 8.954134649041247 -16.76285133535411" fill="#ffb310" stroke="none" /><line stroke="#e1ed5e" stroke-width="0.3" x1="58.666819895761336" x2="56.23545636021788" y1="174.27360380694188" y2="178.64263932499728" /><path d="M 58.180547188652646 175.14741091055294 a86.0,86.0 0 0,1 -31.652253787137756,-30.449443065178592" fill="none" id="id116" stroke="none" /><text fill="#e1ed5e" style="font-size:6.75px; font-family:Arial;" text-anchor="middle"><textPath startOffset="22.20632615414155" xlink:href="#id116">August</textPath></text><path d="M 89.1626897886671 117.98757091392108 l -7.5834268702514915 12.586834365647103 a35.69478691389185,35.69478691389185 0 0,0 -0.5235588963553679,-0.32161263610532487 l 7.7989649665391685 -12.454433262713401" fill="#ff740a" stroke="none" /><path d="M 84.4343377721795 114.09645910891817 l -10.98621836660059 9.949257262542782 a35.82176487719639,35.82176487719639 0 0,0 -0.40997353229581973,-0.4606096096339249 l 11.155850748544745 -9.758673483167989" fill="#ff760a" stroke="none" /><path d="M 82.85270091963577 112.12312394758628 l -14.153352647676895 10.00640670099287 a38.3333656926512,38.3333656926512 0 0,0 -0.37628596330025227,-0.5420679948673035 l 14.323499518139283 -9.761297443938554" fill="#ff9b0e" stroke="none" /><path d="M 82.44556493220864 111.52570212397912 l -13.592046046429054 8.924119368214988 a37.25987768177847,37.25987768177847 0 0,0 -0.3473953733932563,-0.5391653341457799 l 13.743646283199357 -8.68883243414776" fill="#ff8b0c" stroke="none" /><line stroke="#e1ed5e" stroke-width="0.3" x1="26.63291911575756" x2="22.317208475507996" y1="142.92168965132927" y2="145.44649492493687" /><path d="M 25.769776987707644 143.4266507060508 a86.0,86.0 0 0,1 -11.730757126820373,-40.83630448921669" fill="none" id="id117" stroke="none" /><text fill="#e1ed5e" style="font-size:6.75px; font-family:Arial;" text-anchor="middle"><textPath startOffset="21.46611528233685" xlink:href="#id117">September</textPath></text><path d="M 81.51974371655577 109.97397251340807 l -15.392994752797154 8.307747696170997 a38.491796912921075,38.491796912921075 0 0,0 -0.3096710734454804,-0.5857809683677989 l 15.53371833446752 -8.041551712717071" fill="#ff9d0e" stroke="none" /><path d="M 81.18737489456691 109.33194174019688 l -15.9860482073197 7.929827426561687 a38.84477235219882,38.84477235219882 0 0,0 -0.2919771815874851,-0.6015594748547342 l 16.120178645521904 -7.653478995741668" fill="#ffa30f" stroke="none" /><path d="M 80.73074385275274 108.34839909993369 l -19.265514907339057 8.346778208932829 a41.995922725948944,41.995922725948944 0 0,0 -0.28167069094635827,-0.665786309220183 l 19.406336579477724 -8.013917374046487" fill="#ffd013" stroke="none" /><path d="M 80.45479744820244 107.68017299344265 l -27.158146633090457 10.671634830626704 a50.179594214153965,50.179594214153965 0 0,0 -0.3089765990269791,-0.806640401551124 l 27.337817511710945 -10.202570862242421" fill="#c1ff1e" stroke="none" /><path d="M 80.20201598880116 107.00284435728193 l -15.228690462522959 5.38661658752468 a37.153286088729246,37.153286088729246 0 0,0 -0.20807462402971222,-0.6047622550028757 l 15.3191559174959 -5.123681629432507" fill="#ff8a0c" stroke="none" /><line stroke="#e1ed5e" stroke-width="0.3" x1="15.007084014347285" x2="10.007500721073583" y1="101.09737516637583" y2="101.16192664675087" /><path d="M 14.007167355692545 101.11028546245083 a86.0,86.0 0 0,1 10.666146001902534,-42.60595125391555" fill="none" id="id118" stroke="none" /><text fill="#e1ed5e" style="font-size:6.75px; font-family:Arial;" text-anchor="middle"><textPath startOffset="22.20632615414155" xlink:href="#id118">October</textPath></text><path d="M 79.00175016825051 100.2711162175752 l -16.72766120952688 0.2159770586760632 a37.729055431511505,37.729055431511505 0 0,0 -0.002795009228537786,-0.6494617111818833 l 16.72890051604492 0.07199413070949547" fill="#ff920d" stroke="none" /><path d="M 79.00486145842228 99.54816195383935 l -18.832645386290462 -0.4052988589966402 a39.83700611591108,39.83700611591108 0 0,0 0.02065511878868458,-0.6854428355662736 l 18.822878573046133 0.7294118419879082" fill="#ffb110" stroke="none" /><path d="M 79.03285615573316 98.82574320788736 l -22.325659606126514 -1.2503399426077462 a43.36064459761188,43.36064459761188 0 0,0 0.048149743127809216,-0.744855214606433 l 22.300829271994292 1.634454221467191" fill="#ffe315" stroke="none" /><path d="M 79.12142395522702 97.74499172005258 l -23.306741669628646 -2.5172643637622985 a44.442287156586744,44.442287156586744 0 0,0 0.08869336030693736,-0.7598705469874784 l 23.259957956318118 2.9180786490746384" fill="#fff216" stroke="none" /><path d="M 79.21141760316559 97.0276538004421 l -29.060251132845842 -4.155027281998106 a50.355790699932044,50.355790699932044 0 0,0 0.1300716607940623,-0.8570097282073228 l 28.98442357861248 4.654636122597521" fill="#beff1e" stroke="none" /><path d="M 79.3925641242962 95.95851677861259 l -20.0807255102896 -3.9381859884278234 a41.46325599456364,41.46325599456364 0 0,0 0.14338527828485872,-0.6991975391620818 l 20.009960936089747 4.283259183753308" fill="#ffc812" stroke="none" /><path d="M 79.54389044137918 95.25157060432595 l -30.074654146317446 -6.981159902564207 a51.87428405009223,51.87428405009223 0 0,0 0.20939227606673325,-0.8680661672522766 l 29.9500290699899 7.497811301475881" fill="#abff21" stroke="none" /><path d="M 79.81627453868168 94.20196356495316 l -15.169914174437244 -4.35775423464246 a36.78341908552568,36.78341908552568 0 0,0 0.1800532650505109,-0.6070501004776042 l 15.092655012275024 4.618233721866603" fill="#ff840c" stroke="none" /><path d="M 80.14247586403 93.16781622104843 l -39.10671245410876 -13.455063413122412 a62.35666440151442,62.35666440151442 0 0,0 0.35794779926567544,-1.0119666302931125 l 38.86931157403327 14.126227669842136" fill="#31ff2f" stroke="none" /><path d="M 81.26839172434947 90.50648371742162 l -24.736311359840162 -12.536807902973061 a48.73187069216581,48.73187069216581 0 0,0 0.3856560577856697,-0.7449647517841587 l 24.516845868894375 12.960745377017554" fill="#d3ff1c" stroke="none" /><line stroke="#e1ed5e" stroke-width="0.3" x1="26.266209847984243" x2="21.928928074336255" y1="57.71137044288968" y2="55.22380399835378" /><path d="M 25.398753493254645 57.2138571539825 a86.0,86.0 0 0,1 29.58750427330803,-30.4925239686951" fill="none" id="id119" stroke="none" /><text fill="#e1ed5e" style="font-size:6.75px; font-family:Arial;" text-anchor="middle"><textPath startOffset="21.46611528233685" xlink:href="#id119">November</textPath></text><path d="M 82.34701348167596 88.62581576622439 l -29.736151850377816 -19.159617507136424 a56.374138433161825,56.374138433161825 0 0,0 0.5326104163779851,-0.8112022044439866 l 29.40194479864191 19.66863777555808" fill="#75ff27" stroke="none" /><path d="M 83.84228863543731 86.58626213691792 l -32.745655658244054 -27.1846446098664 a63.55916901271721,63.55916901271721 0 0,0 0.7060799783926183,-0.8357759853272514 l 32.27286506636431 27.744279544822767" fill="#31ff3d" stroke="none" /><path d="M 85.83668400450813 84.49514656593479 l -19.286756638236824 -21.113582086958242 a49.59654402485196,49.59654402485196 0 0,0 0.6352821617094216,-0.5703625973152365 l 18.920463488931432 21.442443693042755" fill="#c8ff1d" stroke="none" /><path d="M 87.51073957382395 83.11751280151077 l -9.110905694838397 -12.315761182893905 a36.319483545286865,36.319483545286865 0 0,0 0.5058001462109952,-0.36748531689361874 l 8.89756023227362 12.470765734604191" fill="#ff7d0b" stroke="none" /><path d="M 88.39885842347998 82.49532879139004 l -8.12403294973274 -12.258149315305866 a35.705853800601886,35.705853800601886 0 0,0 0.5152405273384629,-0.33512677132861846 l 7.911825396609988 12.396175010794021" fill="#ff740a" stroke="none" /><path d="M 89.00827224532344 82.1063720568725 l -7.712821906380375 -12.555839142363736 a35.735559654402486,35.735559654402486 0 0,0 0.5269088025688194,-0.31745665792488365 l 7.495551037593909 12.68674240974724" fill="#ff740a" stroke="none" /><line stroke="#e1ed5e" stroke-width="0.3" x1="56.76296977257108" x2="54.21961505331056" y1="26.818313649435495" y2="22.513508569990535" /><path d="M 56.25429882871898 25.957352633546506 a86.0,86.0 0 0,1 42.26535254187918,-11.944610805530505" fill="none" id="id120" stroke="none" /><text fill="#e1ed5e" style="font-size:6.75px; font-family:Arial;" text-anchor="middle"><textPath startOffset="22.20632615414155" xlink:href="#id120">December</textPath></text><path d="M 90.58718382345135 81.22770947309562 l -6.649032575928896 -13.260385510253858 a35.833996699349576,35.833996699349576 0 0,0 0.5537695974663113,-0.2717323364817603 l 6.41979171145216 13.37287300687045" fill="#ff760a" stroke="none" /><path d="M 91.23893434514133 80.91482961587045 l -6.130085088612543 -13.353822810413531 a35.6936219784487,35.6936219784487 0 0,0 0.5605902278657015,-0.2515204944304189 l 5.899312742280068 13.457363635360478" fill="#ff740a" stroke="none" /><path d="M 91.90106846888425 80.62456947434976 l -5.895472244535689 -14.103997848487046 a36.28657411901757,36.28657411901757 0 0,0 0.5783667464291421,-0.2359303177926005 l 5.651821628518166 14.203389052463223" fill="#ff7d0b" stroke="none" /><path d="M 92.91201910852362 80.23233633223022 l -5.549517372920668 -15.477044115378689 a37.44189884477235,37.44189884477235 0 0,0 0.6085520894172786,-0.21231187476418645 l 5.282283279440104 15.570276843315085" fill="#ff8e0d" stroke="none" /><path d="M 93.59665428221793 80.00007090966166 l -5.893791891820195 -18.408411025235633 a40.32890010678575,40.32890010678575 0 0,0 0.6629583913976331,-0.20598439932333112 l 5.576048127711833 18.507135559441487" fill="#ffb811" stroke="none" /><path d="M 94.28887869178378 79.79150937346287 l -10.844216026678868 -38.371665755376824 a60.87457528395302,60.87457528395302 0 0,0 1.0108139473392335,-0.2762936355258871 l 10.182104190115913 38.552645931729" fill="#42ff2d" stroke="none" /><path d="M 94.98787191387505 79.60689891045804 l -4.577345593735702 -18.624079395183788 a40.17833220075721,40.17833220075721 0 0,0 0.6730374078846139,-0.15928620947976732 l 4.256084498888555 18.700111516804427" fill="#ffb610" stroke="none" /><path d="M 95.692805502759 79.44645832069477 l -3.2385046786361698 -15.453850745214913 a36.78953499660227,36.78953499660227 0 0,0 0.6209260468038182,-0.12455192361987766 l 2.972012222365215 15.507306624912001" fill="#ff840c" stroke="none" /><path d="M 96.75951476605007 79.25152402106235 l -3.691008268750258 -23.633126175019168 a44.919619454421905,44.919619454421905 0 0,0 0.7649833002019992,-0.11273865307801338 l 3.2836559881196097 23.69315931225815" fill="#fff817" stroke="none" /></svg>