<?xml version="1.0" encoding="utf-8" ?>
<svg baseProfile="full" height="200mm" version="1.1" viewBox="0,0,200,200" width="200mm" xmlns="http://www.w3.org/2000/svg" xmlns:ev="http://www.w3.org/2001/xml-events" xmlns:xlink="http://www.w3.org/1999/xlink"><defs /><rect fill="#1a1a1a" height="200" width="200" x="0" y="0" /><text alignment-baseline="middle" fill="#e1ed5e" style="dominant-baseline: central; font-size:9.0px; font-family:Arial;" text-anchor="middle" x="100.0" y="100.0">2020</text><line stroke="#e1ed5e" stroke-width="0.3" x1="100.0" x2="100.0" y1="15.0" y2="10.0" /><path d="M 100.0 14.0 a86.0,86.0 0 0,1 42.35913384403234,11.155469271406648" fill="none" id="id73" stroke="none" /><text fill="#e1ed5e" style="font-size:6.75px; font-family:Arial;" text-anchor="middle"><textPath startOffset="22.145653131862478" xlink:href="#id73">January</textPath></text><path d="M 101.08105385017728 79.02784411241856 l 1.624856171908154 -31.521775651202336 a52.56362618242905,52.56362618242905 0 0,0 0.9007294168640508,0.05418564501008751 l -2.1657299409046673 31.489238028367556" fill="#9dff22" stroke="none" /><path d="M 103.94208987418118 79.37332000966035 l 5.9450638235118936 -31.107086069466195 a52.67008979461232,52.67008979461232 0 0,0 0.8866219928474064,0.17734922986659155 l -6.478182301890257 31.000447442936746" fill="#9bff22" stroke="none" /><path d="M 106.04205211174951 79.88797359093562 l 18.126156335248517 -60.33607922719316 a84.0,84.0 0 0,0 1.3774374685134794,0.42673364877341324 l -19.15923443663363 60.016028990613094" fill="#4dd2ff" stroke="none" /><path d="M 109.06512990194946 81.05736502329252 l 13.673021562806795 -28.571356317486526 a52.6744995300282,52.6744995300282 0 0,0 0.8122903237166522,0.39733190171702165 l -14.161472135785514 28.33243066567228" fill="#9bff22" stroke="none" /><line stroke="#e1ed5e" stroke-width="0.3" x1="143.13028292997686" x2="145.6673583964461" y1="26.7553504044142" y2="22.446841604673864" /><path d="M 143.63769802327073 25.89364864446614 a86.0,86.0 0 0,1 29.32050498858742,28.57503671076992" fill="none" id="id74" stroke="none" /><text fill="#e1ed5e" style="font-size:6.75px; font-family:Arial;" text-anchor="middle"><textPath startOffset="20.669276256404974" xlink:href="#id74">February</textPath></text><line stroke="#e1ed5e" stroke-width="0.3" x1="172.87174338648825" x2="177.1583165268699" y1="56.24261187166439" y2="53.66864786411523" /><path d="M 173.72905801456457 55.72781907015455 a86.0,86.0 0 0,1 12.242430191666344,42.057860355516425" fill="none" id="id75" stroke="none" /><text fill="#e1ed5e" style="font-size:6.75px; font-family:Arial;" text-anchor="middle"><textPath startOffset="22.145653131862474" xlink:href="#id75">March</textPath></text><line stroke="#e1ed5e" stroke-width="0.3" x1="184.99686870605535" x2="189.99668451229388" y1="99.2704041080226" y2="99.22748670261217" /><path d="M 185.99683186730306 99.26182062694052 a86.0,86.0 0 0,1 -10.086455211305974,41.156179273409016" fill="none" id="id76" stroke="none" /><text fill="#e1ed5e" style="font-size:6.75px; font-family:Arial;" text-anchor="middle"><textPath startOffset="21.40746469413373" xlink:href="#id76">April</textPath></text><path d="M 120.16314734710363 105.8691983318838 l 19.458286007529267 5.664023468692931 a41.26588404695718,41.26588404695718 0 0,0 -0.20382139769780525,0.6784551436190367 l -19.358188289827833 -5.997216215902691" fill="#ffcf13" stroke="none" /><line stroke="#e1ed5e" stroke-width="0.3" x1="174.33088141563837" x2="178.70328620479359" y1="141.23008692659167" y2="143.65538615756765" /><path d="M 175.20536237346943 141.71514677278685 a86.0,86.0 0 0,1 -30.301960400862466,31.63118572779886" fill="none" id="id77" stroke="none" /><text fill="#e1ed5e" style="font-size:6.75px; font-family:Arial;" text-anchor="middle"><textPath startOffset="22.145653131862474" xlink:href="#id77">May</textPath></text><path d="M 118.18653347947321 110.5 l 26.169578963563318 15.10901345919244 a51.21802691838489,51.21802691838489 0 0,0 -0.44614874469781307,0.7576581059288476 l -25.906356508735744 -15.556022733414837" fill="#adff20" stroke="none" /><path d="M 116.57777611688842 112.89097897827484 l 14.62171589870867 11.369934721493824 a39.522148671079734,39.522148671079734 0 0,0 -0.42106816147121573,0.5320058668072929 l -14.424381306595892 -11.619260532215797" fill="#ffb610" stroke="none" /><line stroke="#e1ed5e" stroke-width="0.3" x1="143.1302829299769" x2="145.6673583964461" y1="173.24464959558577" y2="177.55315839532614" /><path d="M 143.63769802327073 174.10635135553383 a86.0,86.0 0 0,1 -40.685524379131806,11.842963189579606" fill="none" id="id78" stroke="none" /><text fill="#e1ed5e" style="font-size:6.75px; font-family:Arial;" text-anchor="middle"><textPath startOffset="21.407464694133747" xlink:href="#id78">June</textPath></text><path d="M 106.38641147887787 120.00534299687104 l 6.097443697525535 19.10015553751018 a41.049807011579304,41.049807011579304 0 0,0 -0.6731374077737813,0.20853968961304836 l -5.768665656880129 -19.20201181492987" fill="#ffcc13" stroke="none" /><path d="M 104.29559338865022 120.5559693870025 l 1.3121820933731518 6.279266332055472 a27.414905105693656,27.414905105693656 0 0,0 -0.4614888239856177,0.09231068954542847 l -1.2041967838565755 -6.300866418263762" fill="#ff0000" stroke="none" /><path d="M 101.80034050326958 120.92268563240118 l 3.4822077064169967 40.46853193369391 a61.618072915625056,61.618072915625056 0 0,0 -1.0546402803845671,0.08163582771306163 l -2.786998431257193 -40.52234552840203" fill="#36ff2f" stroke="none" /><line stroke="#e1ed5e" stroke-width="0.3" x1="101.45913802915013" x2="101.54496967792366" y1="184.9874750549273" y2="189.98673829345242" /><path d="M 101.47630435890484 185.9873277026323 a86.0,86.0 0 0,1 -42.54439059252881,-10.42667462771756" fill="none" id="id79" stroke="none" /><text fill="#e1ed5e" style="font-size:6.75px; font-family:Arial;" text-anchor="middle"><textPath startOffset="22.145653131862474" xlink:href="#id79">July</textPath></text><path d="M 97.84075906011543 120.88869738790638 l -3.261985492848036 31.556750608612425 a52.724896506209625,52.724896506209625 0 0,0 -0.89949702428516,-0.10079051774240261 l 3.8032184187339952 -31.49610433036305" fill="#9bff22" stroke="none" /><path d="M 97.48249496171623 120.84855314841334 l -1.9366507770058496 16.03824661334055 a37.1547507149571,37.1547507149571 0 0,0 -0.6325546382245745,-0.08189686210321531 l 2.2116832371212176 -16.00263815503694" fill="#ff950d" stroke="none" /><path d="M 90.93487009805054 118.94263497670748 l -6.793544643636426 14.195895455915831 a36.73771573705577,36.73771573705577 0 0,0 -0.56653012890329,-0.2771182752333956 l 7.036235021801785 -14.077183430585215" fill="#ff8f0d" stroke="none" /><line stroke="#e1ed5e" stroke-width="0.3" x1="58.13341422392154" x2="55.670673884152215" y1="173.97424548756322" y2="178.32567169271397" /><path d="M 57.64086615596767 174.84453072859336 a86.0,86.0 0 0,1 -31.369924170532244,-30.572349798747886" fill="none" id="id80" stroke="none" /><text fill="#e1ed5e" style="font-size:6.75px; font-family:Arial;" text-anchor="middle"><textPath startOffset="22.145653131862474" xlink:href="#id80">August</textPath></text><path d="M 84.1078160697243 113.72728997021213 l -10.243169327617458 8.84780570065729 a34.53536787792732,34.53536787792732 0 0,0 -0.3836804322477243,-0.4519745844370948 l 10.393544323372298 -8.670664333770638" fill="#ff6e0a" stroke="none" /><path d="M 82.37810715431573 111.42229804090323 l -26.439182769340803 17.137558841942724 a52.50755954642722,52.50755954642722 0 0,0 -0.48377542038732274,-0.7605753138103996 l 26.729475881354016 -16.68116985345365" fill="#9dff22" stroke="none" /><line stroke="#e1ed5e" stroke-width="0.3" x1="26.387840678322732" x2="22.057713659400548" y1="142.50000000000003" y2="145.00000000000006" /><path d="M 25.521815274538298 143.00000000000003 a86.0,86.0 0 0,1 -11.493303480769221,-40.785679425670985" fill="none" id="id81" stroke="none" /><text fill="#e1ed5e" style="font-size:6.75px; font-family:Arial;" text-anchor="middle"><textPath startOffset="21.40746469413373" xlink:href="#id81">September</textPath></text><path d="M 80.68587082218212 108.24405325689762 l -14.106966098679372 6.021424975469769 a36.338319700817955,36.338319700817955 0 0,0 -0.23996122835591047,-0.5758195932362685 l 14.208253171571767 -5.778372872792218" fill="#ff890c" stroke="none" /><path d="M 80.5471966667186 107.91128576633889 l -13.701149014922516 5.572138026954511 a35.790882547047175,35.790882547047175 0 0,0 -0.226575588092203,-0.5711184921211556 l 13.794783277980843 -5.3361185176197905" fill="#ff810b" stroke="none" /><path d="M 80.28708602549918 107.23885506374661 l -13.849462390740838 5.085714424922871 a35.75371477711337,35.75371477711337 0 0,0 -0.2066221307451349,-0.577958873636042 l 13.934724691529917 -4.847220594905908" fill="#ff800b" stroke="none" /><path d="M 80.05021161711548 106.5578916946017 l -19.376864835940896 6.369560345013706 a41.3969161850289,41.3969161850289 0 0,0 -0.21612203199479552,-0.6769991870295686 l 19.48335158371295 -6.035992124292746" fill="#ffd113" stroke="none" /><path d="M 79.94057633289273 106.21446072829308 l -14.230705466774584 4.408708930366271 a35.89797612143271,35.89797612143271 0 0,0 -0.1773081041779443,-0.5902010124728021 l 14.304289890956158 -4.163770314302745" fill="#ff820c" stroke="none" /><path d="M 79.73907114497094 105.5222062557868 l -14.32199650640676 3.903523834910711 a35.84442933423995,35.84442933423995 0 0,0 -0.15670931749688774,-0.5950508035974945 l 14.38689530470838 -3.657092526940412" fill="#ff810b" stroke="none" /><path d="M 79.00696218219943 100.54070618675478 l -14.030274869791183 0.3613701118345749 a35.03492790432574,35.03492790432574 0 0,0 -0.010324573703415434,-0.6013546577102913 l 14.034410875093265 -0.1204685381552312" fill="#ff760a" stroke="none" /><line stroke="#e1ed5e" stroke-width="0.3" x1="15.003131293944662" x2="10.003315487706104" y1="100.72959589197737" y2="100.7725132973878" /><path d="M 14.003168132696942 100.73817937305945 a86.0,86.0 0 0,1 10.791469493833604,-42.453326145846276" fill="none" id="id82" stroke="none" /><text fill="#e1ed5e" style="font-size:6.75px; font-family:Arial;" text-anchor="middle"><textPath startOffset="22.145653131862435" xlink:href="#id82">October</textPath></text><path d="M 79.03789590574601 98.7389718711861 l -7.157290626586375 -0.4305648309749396 a28.17022978621283,28.17022978621283 0 0,0 0.03318189990384945,-0.4824575421759598 l 7.148844765517462 0.5533657973052241" fill="#ff0c01" stroke="none" /><path d="M 79.22317932658666 96.9465228501225 l -20.423843668792326 -3.001601685628925 a41.64323140611563,41.64323140611563 0 0,0 0.11001449242629194,-0.7063719604486555 l 20.369307684227767 3.3517618280090313" fill="#ffd413" stroke="none" /><path d="M 79.34024301695615 96.23510406497455 l -46.57400788508974 -8.487335698494906 a68.3410295382277,68.3410295382277 0 0,0 0.22023289800506396,-1.1523515839270912 l 46.42144869480252 9.285589847455313" fill="#38ff7e" stroke="none" /><path d="M 79.64726062577567 94.8264132398404 l -15.189152155429262 -3.8610230811926427 a36.67219966801992,36.67219966801992 0 0,0 0.16032827102636563,-0.6087925596097925 l 15.12063440359817 4.12119614517522" fill="#ff8e0d" stroke="none" /><path d="M 80.16572619554312 93.10060997987247 l -9.597229260221074 -3.338414525868156 a31.161290322580644,31.161290322580644 0 0,0 0.18008232832189067,-0.5037223227896004 l 9.53850676185524 3.5026718050386774" fill="#ff3b05" stroke="none" /><path d="M 80.41425534168474 92.42381321644754 l -13.563881202583834 -5.246800634514689 a35.54330740155591,35.54330740155591 0 0,0 0.2250083039070929,-0.5671679121488723 l 13.47181422371061 5.4788695638771445" fill="#ff7d0b" stroke="none" /><path d="M 80.83023694016515 91.42560881287825 l -13.806576844496579 -6.175506209975578 a36.12476251424914,36.12476251424914 0 0,0 0.2580607419314015,-0.5639092936690142 l 13.69853163771013 6.411604485859264" fill="#ff860c" stroke="none" /><path d="M 81.29705330413844 90.45014215332179 l -12.991222448933291 -6.633410748550109 a35.58677479351239,35.58677479351239 0 0,0 0.28247753377545304,-0.5416879170733712 l 12.875436846182899 6.855444908727966" fill="#ff7e0b" stroke="none" /><line stroke="#e1ed5e" stroke-width="0.3" x1="26.387840678322718" x2="22.05771365940052" y1="57.5" y2="55.0" /><path d="M 25.521815274538284 57.0 a86.0,86.0 0 0,1 29.574782752854787,-30.346332500585742" fill="none" id="id83" stroke="none" /><text fill="#e1ed5e" style="font-size:6.75px; font-family:Arial;" text-anchor="middle"><textPath startOffset="21.40746469413373" xlink:href="#id83">November</textPath></text><path d="M 82.18462484594161 88.88188828441811 l -14.762537484167597 -9.212915222672196 a38.40144591324521,38.40144591324521 0 0,0 0.35380954286657756,-0.5562473675893191 l 14.602210249675126 9.46497626494019" fill="#ffa70f" stroke="none" /><path d="M 82.37810715431573 88.57770195909679 l -12.400486842011333 -8.037845752560074 a35.77765334079955,35.77765334079955 0 0,0 0.3384831119801471,-0.5125065728915383 l 12.260679291110458 8.24953220379067" fill="#ff800b" stroke="none" /><path d="M 82.576782715395 88.27688183743585 l -14.209175002477998 -9.560567076999453 a38.12615243085415,38.12615243085415 0 0,0 0.3700238648167555,-0.5398758770648141 l 14.042961400845929 9.803077689134303" fill="#ffa30f" stroke="none" /><path d="M 82.78059297857968 87.97951657250589 l -12.45611606047226 -8.69533640093374 a36.190908545487275,36.190908545487275 0 0,0 0.3599873507445187,-0.5063672912732036 l 12.305013611197769 8.907880918916462" fill="#ff870c" stroke="none" /><path d="M 83.2033758604659 87.39550010848427 l -16.229604129784015 -12.178997505321332 a41.29108253504789,41.29108253504789 0 0,0 0.4303081793188262,-0.5632872198064617 l 16.01814397311088 12.45580563836868" fill="#ffcf13" stroke="none" /><path d="M 83.64595745247001 86.82634096563983 l -11.68540705876497 -9.412936759977146 a36.00506969581825,36.00506969581825 0 0,0 0.3918606286911505,-0.47800625135622776 l 11.522099610835191 9.612145293031869" fill="#ff840c" stroke="none" /><path d="M 84.34580500576568 86.00192230759919 l -10.961348905728174 -9.801705782533643 a35.70457772533648,35.70457772533648 0 0,0 0.4124767926969968,-0.453384250472771 l 10.791474412189311 9.988427608564075" fill="#ff7f0b" stroke="none" /><path d="M 84.58840730492382 85.73525988315684 l -23.29214601835789 -21.558862623042877 a52.73812571245726,52.73812571245726 0 0,0 0.6206628623579498,-0.6591224514168806 l 22.91862732226367 21.955526534404267" fill="#9aff22" stroke="none" /><path d="M 84.83555147118756 85.47280134310135 l -12.888856273628877 -12.347232752412138 a38.84871907685539,38.84871907685539 0 0,0 0.4654690703867347,-0.4776122718037873 l 12.675000402091339 12.566667716283655" fill="#ffad10" stroke="none" /><path d="M 85.08716467003674 85.21462403516908 l -11.20990223681237 -11.11409168230106 a36.78559286442814,36.78559286442814 0 0,0 0.4484480474334612,-0.4446151811705397 l 11.017462269248933 11.304886873700273" fill="#ff8f0d" stroke="none" /><path d="M 85.34317274990677 84.96080404539775 l -10.110845332574359 -10.37461802807931 a35.486610803351795,35.486610803351795 0 0,0 0.4399114845477213,-0.42142525099634776 l 9.931261362161337 10.546655409381225" fill="#ff7c0b" stroke="none" /><path d="M 85.60350026404147 84.71141617570332 l -10.398975575729816 -11.043351696055424 a36.16885986840789,36.16885986840789 0 0,0 0.4556763584142026,-0.4217672344951598 l 10.207869446001661 11.220236676682951" fill="#ff860c" stroke="none" /><path d="M 87.83215693770416 82.88440491214696 l -7.970432407304322 -11.211411345470037 a34.755854648721076,34.755854648721076 0 0,0 0.48923815450538355,-0.3415262279946229 l 7.776799161625172 11.346582389269786" fill="#ff710a" stroke="none" /><path d="M 88.4268655584334 82.4767994020092 l -4.807654513133637 -7.279401692327754 a29.723716577005376,29.723716577005376 0 0,0 0.4281833965363875,-0.27754330446985237 l 4.681985484340223 7.360858838501513" fill="#ff2503" stroke="none" /><path d="M 89.03521579738668 82.08984904055464 l -7.563931489809487 -12.355113637083933 a35.486610803351795,35.486610803351795 0 0,0 0.5222737609576721,-0.3136103873110829 l 7.350724972294381 12.48313802493094" fill="#ff7c0b" stroke="none" /><line stroke="#e1ed5e" stroke-width="0.3" x1="56.869717070023135" x2="54.33264160355391" y1="26.7553504044142" y2="22.446841604673864" /><path d="M 56.362301976729285 25.89364864446614 a86.0,86.0 0 0,1 42.16139366436587,-11.88097634709845" fill="none" id="id84" stroke="none" /><text fill="#e1ed5e" style="font-size:6.75px; font-family:Arial;" text-anchor="middle"><textPath startOffset="22.145653131862474" xlink:href="#id84">December</textPath></text><path d="M 91.5904679813234 80.7573450057729 l -5.768424668691647 -13.199284515868952 a35.40471571705697,35.40471571705697 0 0,0 0.5589981859684862,-0.23860308550312845 l 5.540991407552729 13.296362251031484" fill="#ff7b0b" stroke="none" /><path d="M 92.25597844496254 80.48000691201159 l -5.816727667837425 -14.66195349069481 a36.773623582585046,36.773623582585046 0 0,0 0.5887767741470098,-0.22775150460574287 l 5.564178631196887 14.759644883438593" fill="#ff8f0d" stroke="none" /><path d="M 92.93061703081487 80.22567764915836 l -3.347081317200433 -9.362382146971191 a30.942693438393697,30.942693438393697 0 0,0 0.501705167293048,-0.17451910054252787 l 3.1858703778623814 9.418459680082305" fill="#ff3805" stroke="none" /><path d="M 93.61358852112211 79.99465700312896 l -4.842780714049416 -15.169941611750472 a36.924184548927066,36.924184548927066 0 0,0 0.6054851820476294,-0.1875808571493717 l 4.581654899130172 15.250839056706486" fill="#ff910d" stroke="none" /><path d="M 93.9579478882505 79.88797359093562 l -4.194684679585788 -13.962741051086246 a35.57921524708517,35.57921524708517 0 0,0 0.5864471011951212,-0.17070620418627303 l 3.9543775660090414 14.03269094957504" fill="#ff7e0b" stroke="none" /><path d="M 95.35216902796891 79.52079915486377 l -3.369940041417261 -14.848577618151193 a36.22618642881427,36.22618642881427 0 0,0 0.607629731561469,-0.1324300718817289 l 3.114547893236674 14.904239148166637" fill="#ff870c" stroke="none" /><path d="M 99.27912038922189 79.0123766808444 l -0.2953771154816186 -8.599582432544441 a29.604653720776753,29.604653720776753 0 0,0 0.5080534782149501,-0.01308565540906137 l 0.14771032319592453 8.603385805303548" fill="#ff2303" stroke="none" /></svg>