<?xml version="1.0" encoding="utf-8" ?>
<svg baseProfile="full" height="200mm" version="1.1" viewBox="0,0,200,200" width="200mm" xmlns="http://www.w3.org/2000/svg" xmlns:ev="http://www.w3.org/2001/xml-events" xmlns:xlink="http://www.w3.org/1999/xlink"><defs /><rect fill="#1a1a1a" height="200" width="200" x="0" y="0" /><text alignment-baseline="middle" fill="#e1ed5e" style="dominant-baseline: central; font-size:9.0px; font-family:Arial;" text-anchor="middle" x="100.0" y="100.0">2015</text><line stroke="#e1ed5e" stroke-width="0.3" x1="100.0" x2="100.0" y1="15.0" y2="10.0" /><path d="M 100.0 14.0 a86.0,86.0 0 0,1 42.46469731375804,11.215312516191453" fill="none" id="id13" stroke="none" /><text fill="#e1ed5e" style="font-size:6.75px; font-family:Arial;" text-anchor="middle"><textPath startOffset="22.20632615414155" xlink:href="#id13">January</textPath></text><line stroke="#e1ed5e" stroke-width="0.3" x1="143.23703022742887" x2="145.7803849466894" y1="26.81831364943548" y2="22.513508569990506" /><path d="M 143.74570117128098 25.957352633546492 a86.0,86.0 0 0,1 28.547481713284135,27.462654790039103" fill="none" id="id14" stroke="none" /><text fill="#e1ed5e" style="font-size:6.75px; font-family:Arial;" text-anchor="middle"><textPath startOffset="19.985693538727396" xlink:href="#id14">February</textPath></text><line stroke="#e1ed5e" stroke-width="0.3" x1="172.23445277983987" x2="176.4835382374775" y1="55.19839476539836" y2="52.563006222186495" /><path d="M 173.08426987136738 54.67131705675599 a86.0,86.0 0 0,1 12.851231095245387,41.99856678651699" fill="none" id="id15" stroke="none" /><text fill="#e1ed5e" style="font-size:6.75px; font-family:Arial;" text-anchor="middle"><textPath startOffset="22.20632615414155" xlink:href="#id15">March</textPath></text><path d="M 120.37134235888165 94.90015583598534 l 14.199849199593345 -3.554847628333205 a35.63805516289162,35.63805516289162 0 0,0 0.14385419715756043,0.596368519008422 l -14.258936197011725 3.3098938776653766" fill="#ff5107" stroke="none" /><path d="M 120.53481517161879 95.60439243477599 l 14.885192627443192 -3.186269989585115 a36.22239389855025,36.22239389855025 0 0,0 0.12526170231224,0.6108205462625983 l -14.937833625670429 2.9295737871591054" fill="#ff5a08" stroke="none" /><path d="M 120.67395015179393 96.31383870115 l 15.807149677894525 -2.818411719094131 a37.05644498504224,37.05644498504224 0 0,0 0.10656046339642704,0.6289258870076845 l -15.853322002811176 2.5459000437706094" fill="#ff6809" stroke="none" /><path d="M 120.78858239683441 97.02765380044208 l 16.219317729842242 -2.3190339049313895 a37.384266412439594,37.384266412439594 0 0,0 0.08559929054275467,0.6378141405211977 l -16.256833019442833 2.039501422345528" fill="#ff6d0a" stroke="none" /><path d="M 120.87857604477298 97.74499172005257 l 17.84738642245934 -1.9276220788123548 a38.95118182714751,38.95118182714751 0 0,0 0.06625943680665947,0.6672234862478902 l -17.877922984948228 1.6201230618600297" fill="#ff850c" stroke="none" /><path d="M 120.94382443527127 98.46500227214037 l 18.626983999205393 -1.365193745011819 a39.676945330221244,39.676945330221244 0 0,0 0.0440591864690893,0.681576113619294 l -18.647723776678898 1.0443585671394897" fill="#ff910d" stroke="none" /><path d="M 120.98425023603335 99.18683210126433 l 17.938901225809936 -0.6951565317482609 a38.95236529800454,38.95236529800454 0 0,0 0.020196440716190554,0.6702215433607409 l -17.948209360981775 0.38626484096252084" fill="#ff850c" stroke="none" /><line stroke="#e1ed5e" stroke-width="0.3" x1="184.98032266829074" x2="189.97916517819016" y1="98.17113171792111" y2="98.06355123074" /><path d="M 185.9800911702706 98.14961562048488 a86.0,86.0 0 0,1 -9.607161424134198,41.387399972396054" fill="none" id="id16" stroke="none" /><text fill="#e1ed5e" style="font-size:6.75px; font-family:Arial;" text-anchor="middle"><textPath startOffset="21.466115282336823" xlink:href="#id16">April</textPath></text><path d="M 120.99980553446 99.90962569577887 l 23.101728934571515 -0.09942009583569872 a44.10194286465696,44.10194286465696 0 0,0 -0.003267119621558575,0.7591635399226728 l -23.100017517660454 -0.2982529222906588" fill="#ffd313" stroke="none" /><path d="M 120.9904718944345 100.63252640178507 l 22.367209790757165 0.6740129901829717 a43.377362832440255,43.377362832440255 0 0,0 -0.028913836294935952,0.746137639028876 l -22.352293821611024 -1.0589278762258538" fill="#ffc912" stroke="none" /><path d="M 120.95626037817324 101.35467743843564 l 29.802978573070188 1.9265566442937267 a50.865182944869986,50.865182944869986 0 0,0 -0.06400157988435733,0.8732507080300936 l -29.765400434521492 -2.4392804888205903" fill="#cbff1d" stroke="none" /><path d="M 120.70491114924044 103.5080841355445 l 20.310324450872326 3.4412283385471363 a41.59978960518097,41.59978960518097 0 0,0 -0.12569784039952234,0.7049802425679563 l -20.248080168133615 -3.790327331848311" fill="#ffae10" stroke="none" /><path d="M 120.5718875245553 104.21870165774334 l 22.23970084769636 4.56072213703787 a43.70252145040928,43.70252145040928 0 0,0 -0.15746634741480303,0.7356303518756248 l -22.157900461557112 -4.942866308329664" fill="#ffcd13" stroke="none" /><path d="M 120.49622156327973 104.57218783832717 l 32.507995185311614 7.251710261610588 a54.3070120648279,54.3070120648279 0 0,0 -0.21138211581817487,0.9106286225607412 l -32.37835250356289 -7.810207541519894" fill="#9eff22" stroke="none" /><path d="M 120.32669344350535 105.2749913415812 l 23.596693320965755 6.123590799654236 a45.378316183963975,45.378316183963975 0 0,0 -0.2027155777899392,0.7543800770023134 l -23.487789666834036 -6.528861809832097" fill="#ffe615" stroke="none" /><path d="M 120.13307415673323 105.97154293290107 l 19.932909231663814 5.912173288980445 a41.7912160163056,41.7912160163056 0 0,0 -0.21049484756847822,0.6879093410041578 l -19.828187611589204 -6.2544096025366605" fill="#ffb110" stroke="none" /><path d="M 119.9155931802556 106.66101706037122 l 23.436805261287024 7.838730098222829 a45.712942568789245,45.712942568789245 0 0,0 -0.2560124376502436,0.7440919805772991 l -23.29840199269355 -8.240994781889428" fill="#ffeb16" stroke="none" /><path d="M 119.54520255179757 107.68017299344265 l 24.374203040437273 9.577700483366822 a47.18843485979158,47.18843485979158 0 0,0 -0.30357305651634675,0.7534434304283967 l -24.205727369663535 -9.995843281638033" fill="#feff18" stroke="none" /><path d="M 119.26925614724726 108.34839909993367 l 22.310503353366283 9.666018485146257 a45.31440875768435,45.31440875768435 0 0,0 -0.3162490758842822,0.7130581788012912 l -22.14081319275073 -10.048625000440236" fill="#ffe515" stroke="none" /><line stroke="#e1ed5e" stroke-width="0.3" x1="174.80103733775053" x2="179.2010983576182" y1="140.37084112569926" y2="142.7455964860345" /><path d="M 175.68104954172406 140.8457921977663 a86.0,86.0 0 0,1 -30.038265399797805,32.042727171017184" fill="none" id="id17" stroke="none" /><text fill="#e1ed5e" style="font-size:6.75px; font-family:Arial;" text-anchor="middle"><textPath startOffset="22.206326154141568" xlink:href="#id17">May</textPath></text><path d="M 118.48025628344425 109.97397251340804 l 10.736241463481335 5.794453042840437 a33.20010519740951,33.20010519740951 0 0,0 -0.2757562645295127,0.500577718942575 l -10.634908789500312 -5.978401280180818" fill="#ff2904" stroke="none" /><path d="M 115.32070863581623 114.36230785411682 l 11.726188472064697 10.992646149374169 a37.07301357704067,37.07301357704067 0 0,0 -0.440451143243354,0.46181126279018714 l -11.535230777442381 -11.192864528746862" fill="#ff6809" stroke="none" /><line stroke="#e1ed5e" stroke-width="0.3" x1="143.8653032363475" x2="146.44561519142675" y1="172.8068346515853" y2="177.08958963109032" /><path d="M 144.38136562736335 173.6633856474863 a86.0,86.0 0 0,1 -40.68145358897372,12.25698825130547" fill="none" id="id18" stroke="none" /><text fill="#e1ed5e" style="font-size:6.75px; font-family:Arial;" text-anchor="middle"><textPath startOffset="21.466115282336833" xlink:href="#id18">June</textPath></text><path d="M 106.91757812671514 119.82793768551818 l 5.362809941472207 15.371486868812795 a37.28012097702094,37.28012097702094 0 0,0 -0.6077197033426698,0.20617151896894473 l -5.097420505192311 -15.461521374679863" fill="#ff6b09" stroke="none" /><path d="M 106.2309692047433 120.05430185196036 l 4.637124193989906 14.924530238491684 a36.62832440251159,36.62832440251159 0 0,0 -0.6037133200014424,0.1818938709805555 l -4.379535899548218 -15.002139478577964" fill="#ff6108" stroke="none" /><path d="M 105.53697534728816 120.25689768951611 l 3.290154258577468 12.036954116360993 a33.47851671652586,33.47851671652586 0 0,0 -0.5571934072819427,0.14715984311523383 l -3.082470408484027 -12.091805308779811" fill="#ff2d04" stroke="none" /><path d="M 104.48393922423573 120.51570834832081 l 9.504583228886405 43.48704292025964 a65.51359347776062,65.51359347776062 0 0,0 -1.1037747030893483,0.23130672083279188 l -8.754617064367679 -43.644205621818976" fill="#32ff4b" stroke="none" /><path d="M 101.98527174616119 120.90594882070398 l 5.955815238483573 62.71784646211194 a84.0,84.0 0 0,0 -1.440622729033832,0.12430299088534635 l -4.875348191708198 -62.81107370527595" fill="#4dd2ff" stroke="none" /><line stroke="#e1ed5e" stroke-width="0.3" x1="102.19456741930631" x2="102.32365962044197" y1="184.97166512339345" y2="189.96999836594603" /><path d="M 102.22038585953345 185.97133177190398 a86.0,86.0 0 0,1 -42.740103519485714,-10.115201625700543" fill="none" id="id19" stroke="none" /><text fill="#e1ed5e" style="font-size:6.75px; font-family:Arial;" text-anchor="middle"><textPath startOffset="22.20632615414155" xlink:href="#id19">July</textPath></text><path d="M 99.09653310690486 120.98055641714683 l -1.2439052921896006 28.88631045567628 a49.913080640389225,49.913080640389225 0 0,0 -0.8580579834962002,-0.0443517966592125 l 1.7409513440992899 -28.860618852254866" fill="#d8ff1c" stroke="none" /><path d="M 96.93821686468263 120.77559828337769 l -1.9495028750977672 13.228268233021959 a34.371149610440845,34.371149610440845 0 0,0 -0.584578188923597,-0.0912990906522027 l 2.176916927629882 -13.192750835022652" fill="#ff3c05" stroke="none" /><path d="M 95.16358092515715 120.4354850818985 l -2.7651216963616205 11.683562218492787 a33.00631184457083,33.00631184457083 0 0,0 -0.5517503502751359,-0.13560681207830003 l 2.965825331379967 -11.634234148100456" fill="#ff2603" stroke="none" /><path d="M 94.46302465271185 120.25689768951611 l -4.270351248785781 15.622982390072963 a37.19609454617181,37.19609454617181 0 0,0 -0.6161600933736707,-0.1741329970442188 l 4.538642510264067 -15.547160599690223" fill="#ff6a09" stroke="none" /><path d="M 92.7421414339146 119.70592522655815 l -10.267988539777283 27.87877616374404 a50.70955652717052,50.70955652717052 0 0,0 -0.8164957692321962,-0.3087288351578738 l 10.746354529769762 -27.697899078479534" fill="#ceff1d" stroke="none" /><path d="M 90.10565033884886 118.52300852407294 l -6.51406402928524 12.194845307980497 a34.82560241954042,34.82560241954042 0 0,0 -0.5263262748044936,-0.28699505032377076 l 6.723013115958375 -12.080909605896961" fill="#ff4406" stroke="none" /><line stroke="#e1ed5e" stroke-width="0.3" x1="58.666819895761336" x2="56.23545636021788" y1="174.27360380694188" y2="178.64263932499728" /><path d="M 58.180547188652646 175.14741091055294 a86.0,86.0 0 0,1 -31.652253787137756,-30.449443065178592" fill="none" id="id20" stroke="none" /><text fill="#e1ed5e" style="font-size:6.75px; font-family:Arial;" text-anchor="middle"><textPath startOffset="22.20632615414155" xlink:href="#id20">August</textPath></text><path d="M 83.95833913139862 113.55231037782056 l -11.46300006473295 9.684167743647267 a36.00611459942799,36.00611459942799 0 0,0 -0.39590266139521796,-0.4768902595667937 l 11.627998726021707 -9.48541622696671" fill="#ff5708" stroke="none" /><line stroke="#e1ed5e" stroke-width="0.3" x1="26.63291911575756" x2="22.317208475507996" y1="142.92168965132927" y2="145.44649492493687" /><path d="M 25.769776987707644 143.4266507060508 a86.0,86.0 0 0,1 -11.730757126820373,-40.83630448921669" fill="none" id="id21" stroke="none" /><text fill="#e1ed5e" style="font-size:6.75px; font-family:Arial;" text-anchor="middle"><textPath startOffset="21.46611528233685" xlink:href="#id21">September</textPath></text><path d="M 80.20201598880116 107.00284435728193 l -11.435678102846383 4.044971135895016 a33.12998454913048,33.12998454913048 0 0,0 -0.18554237874699597,-0.5392730031010795 l 11.503611312536608 -3.8475254297046404" fill="#ff2803" stroke="none" /><path d="M 80.0844068197444 106.66101706037122 l -16.463593193889594 5.50645286569881 a38.36003813406095,38.36003813406095 0 0,0 -0.20405302432794212,-0.6280106336849295 l 16.555938469233787 -5.222243332036076" fill="#ff7c0b" stroke="none" /><path d="M 79.50377843672027 104.57218783832718 l -19.208981112218886 4.285037100949931 a40.68112035241133,40.68112035241133 0 0,0 -0.14657981320152003,-0.6847720883450106 l 19.279894964144848 -3.953751193188756" fill="#ffa00e" stroke="none" /><path d="M 79.10278846688536 102.07522291339032 l -19.975482112503407 1.983689456375376 a41.07373680923107,41.07373680923107 0 0,0 -0.06381177361001501,-0.7041576044371918 l 20.0066684823905 -1.6395504633896183" fill="#ffa60f" stroke="none" /><line stroke="#e1ed5e" stroke-width="0.3" x1="15.007084014347285" x2="10.007500721073583" y1="101.09737516637583" y2="101.16192664675087" /><path d="M 14.007167355692545 101.11028546245083 a86.0,86.0 0 0,1 10.666146001902534,-42.60595125391555" fill="none" id="id22" stroke="none" /><text fill="#e1ed5e" style="font-size:6.75px; font-family:Arial;" text-anchor="middle"><textPath startOffset="22.20632615414155" xlink:href="#id22">October</textPath></text><path d="M 79.00175016825051 100.2711162175752 l -19.71409373894546 0.25453600039297186 a40.715736874979456,40.715736874979456 0 0,0 -0.0030162658198232216,-0.700873950869437 l 19.715554302054787 0.08484742868014057" fill="#ffa10e" stroke="none" /><path d="M 79.00019446554 99.90962569577889 l -14.433476913298025 -0.062115595851133396 a35.43361057233965,35.43361057233965 0 0,0 0.007874686111178484,-0.6099031175193291 l 14.43026922006913 0.3105549714309345" fill="#ff4e07" stroke="none" /><path d="M 80.52162464483688 92.15188598940014 l -11.809530603411426 -4.758227567612492 a33.73207534764457,33.73207534764457 0 0,0 0.22163308829979073,-0.53670210309681 l 11.725875828225435 4.960804241162613" fill="#ff3204" stroke="none" /><path d="M 80.65960295795068 91.81776055985345 l -13.84990162426608 -5.859404595770995 a36.03836418028206,36.03836418028206 0 0,0 0.246621320703776,-0.5692360107761553 l 13.746989593719624 6.096939751133748" fill="#ff5708" stroke="none" /><path d="M 81.10775173730289 90.83032412892265 l -10.894142699496042 -5.28765851785291 a33.10956967684671,33.10956967684671 0 0,0 0.2532724211431777,-0.5105817461320146 l 10.801510265399452 5.474399852483888" fill="#ff2703" stroke="none" /><path d="M 81.43458229118936 90.18545643968196 l -13.099277033488045 -6.9248872861519 a35.81705513001742,35.81705513001742 0 0,0 0.29283325122235604,-0.5425755408517979 l 12.978135683047217 7.1493438103361715" fill="#ff5407" stroke="none" /><path d="M 81.6062741919709 89.86733742301443 l -16.95165314367348 -9.33825931840096 a40.35359479272823,40.35359479272823 0 0,0 0.34039671256730314,-0.6055277691713536 l 16.788398789813744 9.6286705975071" fill="#ff9b0e" stroke="none" /><line stroke="#e1ed5e" stroke-width="0.3" x1="26.266209847984243" x2="21.928928074336255" y1="57.71137044288968" y2="55.22380399835378" /><path d="M 25.398753493254645 57.2138571539825 a86.0,86.0 0 0,1 29.58750427330803,-30.4925239686951" fill="none" id="id23" stroke="none" /><text fill="#e1ed5e" style="font-size:6.75px; font-family:Arial;" text-anchor="middle"><textPath startOffset="21.46611528233685" xlink:href="#id23">November</textPath></text><path d="M 82.15384107792192 88.93136811851018 l -14.29524825435347 -8.866268717701393 a37.82155889411223,37.82155889411223 0 0,0 0.3479086402524071,-0.5503079184386346 l 14.1405120178551 9.111024283854244" fill="#ff740a" stroke="none" /><path d="M 82.7489923806493 88.02491185347247 l -14.015385417523706 -9.72902450023495 a38.06121174266084,38.06121174266084 0 0,0 0.3782330745555122,-0.5349838605568626 l 13.845839723164316 9.968834861123598" fill="#ff770b" stroke="none" /><path d="M 84.5562425177563 85.77008943001954 l -21.81518776098238 -20.10055980631806 a50.6636970314606,50.6636970314606 0 0,0 0.5964629283793023,-0.6362650648200374 l 21.465957510632617 20.47309428801615" fill="#ceff1d" stroke="none" /><path d="M 88.39885842347998 82.49532879139004 l -9.4700005419826 -14.289046016667013 a38.1422794963674,38.1422794963674 0 0,0 0.5503984951976727,-0.35799449160674873 l 9.222635021000638 14.449939432433299" fill="#ff790b" stroke="none" /><line stroke="#e1ed5e" stroke-width="0.3" x1="56.76296977257108" x2="54.21961505331056" y1="26.818313649435495" y2="22.513508569990535" /><path d="M 56.25429882871898 25.957352633546506 a86.0,86.0 0 0,1 42.26535254187918,-11.944610805530505" fill="none" id="id24" stroke="none" /><text fill="#e1ed5e" style="font-size:6.75px; font-family:Arial;" text-anchor="middle"><textPath startOffset="22.20632615414155" xlink:href="#id24">December</textPath></text><path d="M 92.91201910852362 80.23233633223022 l -5.698832104942155 -15.893467840052292 a37.88428284953483,37.88428284953483 0 0,0 0.6157422618906111,-0.21482038475739484 l 5.424407838988257 15.989209077981895" fill="#ff750a" stroke="none" /><path d="M 93.94186890950719 79.89281104454417 l -4.901631296203325 -16.268718056861783 a37.9910910943818,37.9910910943818 0 0,0 0.6277752499576713,-0.1832648101934674 l 4.620865828522232 16.350681195973948" fill="#ff760a" stroke="none" /><path d="M 95.692805502759 79.44645832069477 l -4.274930943808237 -20.399582927122648 a41.84269699858641,41.84269699858641 0 0,0 0.7062122540375074,-0.14165953445997453 l 3.9231522803035936 20.470146417659834" fill="#ffb210" stroke="none" /><path d="M 96.40284397218896 79.31037775812273 l -1.6733052261073236 -9.624284505831344 a30.76866432164108,30.76866432164108 0 0,0 0.5225849490307557,-0.0862309942707021 l 1.5073910709376823 9.651661763041673" fill="#ff0000" stroke="none" /><path d="M 97.83486435360386 79.11191278185805 l -2.3444205468918726 -22.617733415914387 a43.738913179262966,43.738913179262966 0 0,0 0.7495493248380206,-0.07117874006662406 l 1.9547460949636153 22.65473770049619" fill="#ffce13" stroke="none" /><path d="M 98.91598698831166 79.02799685794201 l -1.8364071217438693 -35.5282967197288 a56.5757256977547,56.5757256977547 0 0,0 0.9729924761890955,-0.04189910276875023 l 1.2245738131654498 35.55464354902175" fill="#81ff25" stroke="none" /></svg>