<?xml version="1.0" encoding="utf-8" ?>
<svg baseProfile="full" height="200mm" version="1.1" viewBox="0,0,200,200" width="200mm" xmlns="http://www.w3.org/2000/svg" xmlns:ev="http://www.w3.org/2001/xml-events" xmlns:xlink="http://www.w3.org/1999/xlink"><defs /><rect fill="#1a1a1a" height="200" width="200" x="0" y="0" /><text alignment-baseline="middle" fill="#e1ed5e" style="dominant-baseline: central; font-size:9.0px; font-family:Arial;" text-anchor="middle" x="100.0" y="100.0">2018</text><line stroke="#e1ed5e" stroke-width="0.3" x1="100.0" x2="100.0" y1="15.0" y2="10.0" /><path d="M 100.0 14.0 a86.0,86.0 0 0,1 42.46469731375804,11.215312516191453" fill="none" id="id49" stroke="none" /><text fill="#e1ed5e" style="font-size:6.75px; font-family:Arial;" text-anchor="middle"><textPath startOffset="22.20632615414155" xlink:href="#id49">January</textPath></text><path d="M 106.74666289553966 80.11325718540242 l 10.342503425713174 -30.48599120347786 a53.192592886709484,53.192592886709484 0 0,0 0.8645518667985641,0.30162517040511766 l -10.865737296575011 30.303445179900535" fill="#ffe015" stroke="none" /><path d="M 107.76421540070413 80.48803036053334 l 13.971055943088139 -35.11015670277562 a58.787742825661844,58.787742825661844 0 0,0 0.9370097997256461,0.3822298242230244 l -14.573349612402172 34.86446599236901" fill="#bcff1f" stroke="none" /><line stroke="#e1ed5e" stroke-width="0.3" x1="143.23703022742887" x2="145.7803849466894" y1="26.81831364943548" y2="22.513508569990506" /><path d="M 143.74570117128098 25.957352633546492 a86.0,86.0 0 0,1 28.547481713284135,27.462654790039103" fill="none" id="id50" stroke="none" /><text fill="#e1ed5e" style="font-size:6.75px; font-family:Arial;" text-anchor="middle"><textPath startOffset="19.985693538727396" xlink:href="#id50">February</textPath></text><path d="M 111.60114157652 82.49532879139004 l 24.378047295705557 -36.783423407481166 a65.12832908150602,65.12832908150602 0 0,0 0.9291496025697669,0.6273659592895602 l -25.007601592681866 36.35834553589293" fill="#57ff2a" stroke="none" /><path d="M 114.42810811169701 84.74124197986012 l 29.150246518440856 -30.828474142892862 a63.42795882510596,63.42795882510596 0 0,0 0.7868593379715093,0.7569580597007556 l -29.67658910002478 30.322132996429804" fill="#71ff27" stroke="none" /><line stroke="#e1ed5e" stroke-width="0.3" x1="172.23445277983987" x2="176.4835382374775" y1="55.19839476539836" y2="52.563006222186495" /><path d="M 173.08426987136738 54.67131705675599 a86.0,86.0 0 0,1 12.851231095245387,41.99856678651699" fill="none" id="id51" stroke="none" /><text fill="#e1ed5e" style="font-size:6.75px; font-family:Arial;" text-anchor="middle"><textPath startOffset="22.20632615414155" xlink:href="#id51">March</textPath></text><path d="M 120.18372546131832 94.20196356495316 l 31.96546254704134 -9.182492937989338 a54.25821661488371,54.25821661488371 0 0,0 0.2501387225617479,0.8998820735052387 l -32.11878804016945 8.630899561065148" fill="#fff316" stroke="none" /><path d="M 120.78858239683441 97.02765380044208 l 40.43209135068103 -5.7809700908069255 a61.843281285673164,61.843281285673164 0 0,0 0.1416034474098481,1.0551101595805865 l -40.525610797148715 5.084141589161675" fill="#8aff24" stroke="none" /><line stroke="#e1ed5e" stroke-width="0.3" x1="184.98032266829074" x2="189.97916517819016" y1="98.17113171792111" y2="98.06355123074" /><path d="M 185.9800911702706 98.14961562048488 a86.0,86.0 0 0,1 -9.607161424134198,41.387399972396054" fill="none" id="id52" stroke="none" /><text fill="#e1ed5e" style="font-size:6.75px; font-family:Arial;" text-anchor="middle"><textPath startOffset="21.466115282336823" xlink:href="#id52">April</textPath></text><line stroke="#e1ed5e" stroke-width="0.3" x1="174.80103733775053" x2="179.2010983576182" y1="140.37084112569926" y2="142.7455964860345" /><path d="M 175.68104954172406 140.8457921977663 a86.0,86.0 0 0,1 -30.038265399797805,32.042727171017184" fill="none" id="id53" stroke="none" /><text fill="#e1ed5e" style="font-size:6.75px; font-family:Arial;" text-anchor="middle"><textPath startOffset="22.206326154141568" xlink:href="#id53">May</textPath></text><line stroke="#e1ed5e" stroke-width="0.3" x1="143.8653032363475" x2="146.44561519142675" y1="172.8068346515853" y2="177.08958963109032" /><path d="M 144.38136562736335 173.6633856474863 a86.0,86.0 0 0,1 -40.68145358897372,12.25698825130547" fill="none" id="id54" stroke="none" /><text fill="#e1ed5e" style="font-size:6.75px; font-family:Arial;" text-anchor="middle"><textPath startOffset="21.466115282336833" xlink:href="#id54">June</textPath></text><line stroke="#e1ed5e" stroke-width="0.3" x1="102.19456741930631" x2="102.32365962044197" y1="184.97166512339345" y2="189.96999836594603" /><path d="M 102.22038585953345 185.97133177190398 a86.0,86.0 0 0,1 -42.740103519485714,-10.115201625700543" fill="none" id="id55" stroke="none" /><text fill="#e1ed5e" style="font-size:6.75px; font-family:Arial;" text-anchor="middle"><textPath startOffset="22.20632615414155" xlink:href="#id55">July</textPath></text><line stroke="#e1ed5e" stroke-width="0.3" x1="58.666819895761336" x2="56.23545636021788" y1="174.27360380694188" y2="178.64263932499728" /><path d="M 58.180547188652646 175.14741091055294 a86.0,86.0 0 0,1 -31.652253787137756,-30.449443065178592" fill="none" id="id56" stroke="none" /><text fill="#e1ed5e" style="font-size:6.75px; font-family:Arial;" text-anchor="middle"><textPath startOffset="22.20632615414155" xlink:href="#id56">August</textPath></text><path d="M 88.54995079064634 117.60387380957326 l -14.177734372050873 21.797552327316268 a47.00271984594157,47.00271984594157 0 0,0 -0.6744337484580724,-0.446977912729762 l 14.550842819248906 -21.55027639349519" fill="#ff6809" stroke="none" /><path d="M 87.95078237400918 117.19931262002967 l -12.055556738508837 17.20836120569849 a42.01104813333201,42.01104813333201 0 0,0 -0.5887001616221258,-0.4200219343586597 l 12.349984227979851 -16.998295009495614" fill="#ff0000" stroke="none" /><path d="M 86.51685102203217 116.09983520530335 l -20.912726636676528 24.971277339901906 a53.571564705532005,53.571564705532005 0 0,0 -0.7018755678227583,-0.5981535857638204 l 21.339467681076343 -24.607599363915135" fill="#ffe715" stroke="none" /><line stroke="#e1ed5e" stroke-width="0.3" x1="26.63291911575756" x2="22.317208475507996" y1="142.92168965132927" y2="145.44649492493687" /><path d="M 25.769776987707644 143.4266507060508 a86.0,86.0 0 0,1 -11.730757126820373,-40.83630448921669" fill="none" id="id57" stroke="none" /><text fill="#e1ed5e" style="font-size:6.75px; font-family:Arial;" text-anchor="middle"><textPath startOffset="21.46611528233685" xlink:href="#id57">September</textPath></text><path d="M 79.76711848015287 105.62410040840567 l -23.228418866791458 6.456764940139231 a45.109111483904265,45.109111483904265 0 0,0 -0.2015129772770713,-0.7499047531155428 l 23.3361199204103 -6.05596925384815" fill="#ff4206" stroke="none" /><path d="M 79.18660465613746 102.79330883721812 l -32.76248789910454 4.396963852647267 a54.056223384719225,54.056223384719225 0 0,0 -0.11583087943464764,-0.9232860761129804 l 32.83332028778604 -3.8323600222468777" fill="#ffef16" stroke="none" /><line stroke="#e1ed5e" stroke-width="0.3" x1="15.007084014347285" x2="10.007500721073583" y1="101.09737516637583" y2="101.16192664675087" /><path d="M 14.007167355692545 101.11028546245083 a86.0,86.0 0 0,1 10.666146001902534,-42.60595125391555" fill="none" id="id58" stroke="none" /><text fill="#e1ed5e" style="font-size:6.75px; font-family:Arial;" text-anchor="middle"><textPath startOffset="22.20632615414155" xlink:href="#id58">October</textPath></text><path d="M 79.01574976396665 99.18683210126434 l -34.92924383895297 -1.3535551424264631 a55.955460041095485,55.955460041095485 0 0,0 0.04558076290179916,-0.9621378640304576 l 34.900769467817675 1.9546041130799299" fill="#edff1a" stroke="none" /><path d="M 79.3925641242962 95.95851677861259 l -33.99088550995198 -6.666214773014777 a55.63839946000138,55.63839946000138 0 0,0 0.19240474966419457,-0.9382338905186424 l 33.87110146437279 7.250324319696822" fill="#f2ff19" stroke="none" /><path d="M 81.10775173730289 90.83032412892265 l -28.44667262306571 -13.807079175388878 a52.620382962249735,52.620382962249735 0 0,0 0.4025208398782027,-0.8114574510398632 l 28.204791770234092 14.294696214927704" fill="#ffd513" stroke="none" /><line stroke="#e1ed5e" stroke-width="0.3" x1="26.266209847984243" x2="21.928928074336255" y1="57.71137044288968" y2="55.22380399835378" /><path d="M 25.398753493254645 57.2138571539825 a86.0,86.0 0 0,1 29.58750427330803,-30.4925239686951" fill="none" id="id59" stroke="none" /><text fill="#e1ed5e" style="font-size:6.75px; font-family:Arial;" text-anchor="middle"><textPath startOffset="21.46611528233685" xlink:href="#id59">November</textPath></text><path d="M 82.34701348167596 88.62581576622439 l -29.940913247371356 -19.291549509177678 a56.61772267497841,56.61772267497841 0 0,0 0.5349117465279947,-0.8147072881476375 l 29.604404865485442 19.804074861302986" fill="#e1ff1b" stroke="none" /><path d="M 83.6137871275137 86.86637796730984 l -49.15863861745889 -39.40086609807048 a84.0,84.0 0 0,0 0.9140060316944298,-1.1204633215676711 l 48.47313409368807 40.241213589246236" fill="#4dd2ff" stroke="none" /><path d="M 87.22198572758235 83.33499621200491 l -19.452221725196008 -25.369462095144247 a52.96871184522686,52.96871184522686 0 0,0 0.7283294893225136,-0.5485626715038852 l 19.012646082115104 25.700541356153987" fill="#ffdb14" stroke="none" /><line stroke="#e1ed5e" stroke-width="0.3" x1="56.76296977257108" x2="54.21961505331056" y1="26.818313649435495" y2="22.513508569990535" /><path d="M 56.25429882871898 25.957352633546506 a86.0,86.0 0 0,1 42.26535254187918,-11.944610805530505" fill="none" id="id60" stroke="none" /><text fill="#e1ed5e" style="font-size:6.75px; font-family:Arial;" text-anchor="middle"><textPath startOffset="22.20632615414155" xlink:href="#id60">December</textPath></text><path d="M 89.63071344664047 81.73862282372117 l -15.496957990298919 -27.291732511154226 a52.38461996605156,52.38461996605156 0 0,0 0.787954264304345,-0.43849569498539004 l 15.02487963692253 27.554443603699802" fill="#ffd113" stroke="none" /><path d="M 92.23578459929587 80.48803036053334 l -11.814299470814637 -29.690089814509317 a52.95432842636066,52.95432842636066 0 0,0 0.8498333412295085,-0.3297221334439347 l 11.301482964585452 29.889054651843804" fill="#ffdb14" stroke="none" /><path d="M 93.94186890950719 79.89281104454417 l -9.643662384995968 -32.007716389967065 a54.428941543165145,54.428941543165145 0 0,0 0.8993988168780175,-0.2625591777861469 l 9.091273350394529 32.16897389667191" fill="#fff617" stroke="none" /><path d="M 96.40284397218896 79.31037775812273 l -5.392788216558031 -31.017489974970296 a52.48280243396432,52.48280243396432 0 0,0 0.8913848956275275,-0.14708614545904955 l 4.858074114791618 31.105722383368974" fill="#ffd213" stroke="none" /></svg>